<?xml version="1.0" encoding="UTF-8" standalone="no"?>
<!-- Created with Inkscape (http://www.inkscape.org/) -->

<svg
   xmlns:dc="http://purl.org/dc/elements/1.1/"
   xmlns:cc="http://creativecommons.org/ns#"
   xmlns:rdf="http://www.w3.org/1999/02/22-rdf-syntax-ns#"
   xmlns:svg="http://www.w3.org/2000/svg"
   xmlns="http://www.w3.org/2000/svg"
   xmlns:sodipodi="http://sodipodi.sourceforge.net/DTD/sodipodi-0.dtd"
   xmlns:inkscape="http://www.inkscape.org/namespaces/inkscape"
   width="90"
   height="380"
   viewBox="0 0 23.812501 100.54167"
   version="1.1"
   id="svg8"
   inkscape:version="0.92.4 (5da689c313, 2019-01-14)"
   sodipodi:docname="Markmod.svg">
  <defs
     id="defs2" />
  <sodipodi:namedview
     id="base"
     pagecolor="#ffffff"
     bordercolor="#666666"
     borderopacity="1.0"
     inkscape:pageopacity="0.0"
     inkscape:pageshadow="2"
     inkscape:zoom="5.6"
     inkscape:cx="62.543263"
     inkscape:cy="196.63391"
     inkscape:document-units="mm"
     inkscape:current-layer="layer1"
     showgrid="false"
     units="px"
     inkscape:snap-bbox="true"
     inkscape:snap-page="true"
     inkscape:bbox-nodes="true"
     inkscape:snap-bbox-edge-midpoints="true"
     inkscape:window-width="1920"
     inkscape:window-height="1016"
     inkscape:window-x="0"
     inkscape:window-y="27"
     inkscape:window-maximized="1" />
  <metadata
     id="metadata5">
    <rdf:RDF>
      <cc:Work
         rdf:about="">
        <dc:format>image/svg+xml</dc:format>
        <dc:type
           rdf:resource="http://purl.org/dc/dcmitype/StillImage" />
        <dc:title />
      </cc:Work>
    </rdf:RDF>
  </metadata>
  <g
     inkscape:label="Layer 1"
     inkscape:groupmode="layer"
     id="layer1"
     transform="translate(0,-196.45832)">
    <path
       style="opacity:1;vector-effect:none;fill:#f0f0f0;fill-opacity:1;fill-rule:evenodd;stroke:none;stroke-width:0.48607069;stroke-linecap:butt;stroke-linejoin:round;stroke-miterlimit:4;stroke-dasharray:none;stroke-dashoffset:0;stroke-opacity:1;paint-order:normal"
       d="M 0,196.45831 H 23.8125 V 296.99999 H 0 Z"
       id="rect817"
       inkscape:connector-curvature="0" />
    <g
       aria-label="Pitch"
       style="font-style:normal;font-variant:normal;font-weight:normal;font-stretch:normal;font-size:2.82222223px;line-height:6.61458302px;font-family:DINPro;-inkscape-font-specification:DINPro;font-variant-ligatures:normal;font-variant-caps:normal;font-variant-numeric:normal;font-feature-settings:normal;text-align:center;letter-spacing:0px;word-spacing:0px;writing-mode:lr-tb;text-anchor:middle;fill:#000000;fill-opacity:1;stroke:none;stroke-width:0.26458332px;stroke-linecap:butt;stroke-linejoin:miter;stroke-opacity:1"
       id="text946"
       transform="translate(0,-2.1166665)">
      <path
         d="m 10.343313,234.08358 c 0,-0.36124 -0.254,-0.58984 -0.6208893,-0.58984 H 8.9745348 v 2.00942 h 0.2144889 v -0.82691 h 0.5334 c 0.3668893,0 0.6208893,-0.23142 0.6208893,-0.59267 z m -0.214489,0 c 0,0.26529 -0.174978,0.40076 -0.4261558,0.40076 H 9.1890237 v -0.79869 h 0.5136445 c 0.2511778,0 0.4261558,0.13264 0.4261558,0.39793 z"
         style="font-size:2.82222223px;text-align:center;text-anchor:middle;stroke-width:0.26458332px"
         id="path973"
         inkscape:connector-curvature="0" />
      <path
         d="m 10.921471,235.50316 v -1.38853 h -0.2032 v 1.38853 z m 0.01411,-1.78365 v -0.2286 h -0.2286 v 0.2286 z"
         style="font-size:2.82222223px;text-align:center;text-anchor:middle;stroke-width:0.26458332px"
         id="path975"
         inkscape:connector-curvature="0" />
      <path
         d="m 11.968251,235.50316 v -0.17498 h -0.107244 c -0.129822,0 -0.189089,-0.0762 -0.189089,-0.2032 v -0.84667 h 0.296333 v -0.15522 h -0.296333 v -0.43462 h -0.2032 v 0.43462 H 11.29374 v 0.15522 h 0.174978 v 0.85232 c 0,0.20602 0.118533,0.37253 0.3556,0.37253 z"
         style="font-size:2.82222223px;text-align:center;text-anchor:middle;stroke-width:0.26458332px"
         id="path977"
         inkscape:connector-curvature="0" />
      <path
         d="m 13.346113,235.31407 -0.138289,-0.13264 c -0.104422,0.11571 -0.186267,0.15804 -0.318911,0.15804 -0.135467,0 -0.248356,-0.0536 -0.321733,-0.15804 -0.06491,-0.0903 -0.09031,-0.19756 -0.09031,-0.37254 0,-0.17498 0.0254,-0.28222 0.09031,-0.37253 0.07338,-0.10442 0.186266,-0.15805 0.321733,-0.15805 0.132644,0 0.214489,0.0395 0.318911,0.15523 l 0.138289,-0.12983 c -0.143933,-0.15522 -0.265289,-0.20602 -0.4572,-0.20602 -0.349956,0 -0.615244,0.23707 -0.615244,0.7112 0,0.47414 0.265288,0.7112 0.615244,0.7112 0.191911,0 0.313267,-0.0508 0.4572,-0.20602 z"
         style="font-size:2.82222223px;text-align:center;text-anchor:middle;stroke-width:0.26458332px"
         id="path979"
         inkscape:connector-curvature="0" />
      <path
         d="m 14.825619,235.50316 v -0.89182 c 0,-0.31327 -0.186267,-0.51365 -0.499534,-0.51365 -0.155222,0 -0.287866,0.0536 -0.389466,0.16934 v -0.77329 h -0.2032 v 2.00942 h 0.2032 v -0.85796 c 0,-0.23989 0.138289,-0.36689 0.347133,-0.36689 0.208844,0 0.338667,0.12418 0.338667,0.36689 v 0.85796 z"
         style="font-size:2.82222223px;text-align:center;text-anchor:middle;stroke-width:0.26458332px"
         id="path981"
         inkscape:connector-curvature="0" />
    </g>
    <g
       aria-label="Freq in"
       style="font-style:normal;font-variant:normal;font-weight:normal;font-stretch:normal;font-size:3.30909085px;line-height:1.25;font-family:sans-serif;-inkscape-font-specification:'sans-serif, Normal';font-variant-ligatures:normal;font-variant-caps:normal;font-variant-numeric:normal;font-feature-settings:normal;text-align:center;letter-spacing:0px;word-spacing:0px;writing-mode:lr-tb;text-anchor:middle;fill:#000000;fill-opacity:1;stroke:none;stroke-width:0.02188834px;stroke-linecap:butt;stroke-linejoin:miter;stroke-opacity:1"
       id="text4223">
      <path
         d="m 6.6267314,254.07475 h 1.3863281 v 0.27468 H 6.9531164 v 0.71094 h 0.9565341 v 0.27468 H 6.9531164 v 1.15204 h -0.326385 z"
         style="font-style:normal;font-variant:normal;font-weight:normal;font-stretch:normal;font-size:3.30909085px;font-family:sans-serif;-inkscape-font-specification:'sans-serif, Normal';font-variant-ligatures:normal;font-variant-caps:normal;font-variant-numeric:normal;font-feature-settings:normal;text-align:center;writing-mode:lr-tb;text-anchor:middle;stroke-width:0.02188834px"
         id="path4233" />
      <path
         d="m 9.3299096,254.95534 q -0.050089,-0.0291 -0.1098721,-0.042 -0.058168,-0.0145 -0.1292614,-0.0145 -0.2520596,0 -0.3877841,0.16481 -0.1341086,0.16319 -0.1341086,0.47019 v 0.9533 H 8.2699665 v -1.80966 h 0.2989169 v 0.28115 q 0.093714,-0.16481 0.2439808,-0.24399 0.1502663,-0.0808 0.3651633,-0.0808 0.0307,0 0.067862,0.005 0.037163,0.003 0.082404,0.0113 z"
         style="font-style:normal;font-variant:normal;font-weight:normal;font-stretch:normal;font-size:3.30909085px;font-family:sans-serif;-inkscape-font-specification:'sans-serif, Normal';font-variant-ligatures:normal;font-variant-caps:normal;font-variant-numeric:normal;font-feature-settings:normal;text-align:center;writing-mode:lr-tb;text-anchor:middle;stroke-width:0.02188834px"
         id="path4235" />
      <path
         d="m 11.121795,255.50794 v 0.14542 H 9.7548564 q 0.019389,0.30699 0.1841974,0.46857 0.1664242,0.15996 0.4621092,0.15996 0.171271,0 0.331232,-0.042 0.161577,-0.042 0.319922,-0.12603 v 0.28114 q -0.159961,0.0679 -0.328,0.10341 -0.16804,0.0356 -0.340927,0.0356 -0.4330258,0 -0.6867012,-0.25206 -0.2520597,-0.25206 -0.2520597,-0.68186 0,-0.44433 0.2391335,-0.70447 0.2407493,-0.26175 0.6479224,-0.26175 0.365164,0 0.576829,0.2359 0.213281,0.23428 0.213281,0.63823 z m -0.297301,-0.0873 q -0.0032,-0.24398 -0.13734,-0.3894 -0.132493,-0.14541 -0.352237,-0.14541 -0.248828,0 -0.3990947,0.14057 -0.1486506,0.14057 -0.1712713,0.39586 z"
         style="font-style:normal;font-variant:normal;font-weight:normal;font-stretch:normal;font-size:3.30909085px;font-family:sans-serif;-inkscape-font-specification:'sans-serif, Normal';font-variant-ligatures:normal;font-variant-caps:normal;font-variant-numeric:normal;font-feature-settings:normal;text-align:center;writing-mode:lr-tb;text-anchor:middle;stroke-width:0.02188834px"
         id="path4237" />
      <path
         d="m 11.787491,255.58388 q 0,0.328 0.134109,0.51543 0.135724,0.18581 0.371626,0.18581 0.235902,0 0.371627,-0.18581 0.135724,-0.18743 0.135724,-0.51543 0,-0.328 -0.135724,-0.51382 -0.135725,-0.18743 -0.371627,-0.18743 -0.235902,0 -0.371626,0.18743 -0.134109,0.18582 -0.134109,0.51382 z m 1.013086,0.63176 q -0.09371,0.16158 -0.237518,0.24075 -0.142187,0.0776 -0.342542,0.0776 -0.328001,0 -0.534819,-0.26176 -0.205202,-0.26175 -0.205202,-0.68831 0,-0.42657 0.205202,-0.68832 0.206818,-0.26175 0.534819,-0.26175 0.200355,0 0.342542,0.0792 0.143804,0.0776 0.237518,0.23913 v -0.27468 h 0.297301 v 2.49798 h -0.297301 z"
         style="font-style:normal;font-variant:normal;font-weight:normal;font-stretch:normal;font-size:3.30909085px;font-family:sans-serif;-inkscape-font-specification:'sans-serif, Normal';font-variant-ligatures:normal;font-variant-caps:normal;font-variant-numeric:normal;font-feature-settings:normal;text-align:center;writing-mode:lr-tb;text-anchor:middle;stroke-width:0.02188834px"
         id="path4239" />
      <path
         d="m 14.763734,254.67743 h 0.297301 v 1.80966 h -0.297301 z m 0,-0.70447 h 0.297301 v 0.37647 h -0.297301 z"
         style="font-style:normal;font-variant:normal;font-weight:normal;font-stretch:normal;font-size:3.30909085px;font-family:sans-serif;-inkscape-font-specification:'sans-serif, Normal';font-variant-ligatures:normal;font-variant-caps:normal;font-variant-numeric:normal;font-feature-settings:normal;text-align:center;writing-mode:lr-tb;text-anchor:middle;stroke-width:0.02188834px"
         id="path4241" />
      <path
         d="m 17.185769,255.39483 v 1.09226 h -0.297302 v -1.08256 q 0,-0.25691 -0.100177,-0.38456 -0.100178,-0.12764 -0.300533,-0.12764 -0.240749,0 -0.379705,0.1535 -0.138956,0.15349 -0.138956,0.41848 v 1.02278 h -0.298917 v -1.80966 h 0.298917 v 0.28115 q 0.106641,-0.1632 0.250444,-0.24399 0.145419,-0.0808 0.334464,-0.0808 0.311843,0 0.471804,0.19389 0.159961,0.19227 0.159961,0.56713 z"
         style="font-style:normal;font-variant:normal;font-weight:normal;font-stretch:normal;font-size:3.30909085px;font-family:sans-serif;-inkscape-font-specification:'sans-serif, Normal';font-variant-ligatures:normal;font-variant-caps:normal;font-variant-numeric:normal;font-feature-settings:normal;text-align:center;writing-mode:lr-tb;text-anchor:middle;stroke-width:0.02188834px"
         id="path4243" />
    </g>
    <flowRoot
       xml:space="preserve"
       id="flowRoot3885"
       style="font-style:normal;font-weight:normal;font-size:40px;line-height:1.25;font-family:sans-serif;letter-spacing:0px;word-spacing:0px;fill:#000000;fill-opacity:1;stroke:none"
       transform="matrix(0.26458333,0,0,0.26458333,0,196.45832)"><flowRegion
         id="flowRegion3887"><rect
           id="rect3889"
           width="90"
           height="56.42857"
           x="0"
           y="0" /></flowRegion><flowPara
         id="flowPara3891">Mark</flowPara></flowRoot>    <text
       xml:space="preserve"
       style="font-style:normal;font-weight:normal;font-size:10.58333302px;line-height:1.25;font-family:sans-serif;letter-spacing:0px;word-spacing:0px;fill:#000000;fill-opacity:1;stroke:none;stroke-width:0.26458332"
       x="5.0597305"
       y="204.1653"
       id="text3895"><tspan
         sodipodi:role="line"
         id="tspan3893"
         x="5.0597305"
         y="213.52907"
         style="stroke-width:0.26458332" /></text>
    <g
       aria-label="Mark mod"
       transform="matrix(0.98588325,0,0,1.0143189,0.1061264,-1.984375)"
       style="font-style:normal;font-weight:normal;font-size:5.43380404px;line-height:1.25;font-family:sans-serif;letter-spacing:0px;word-spacing:0px;fill:#000000;fill-opacity:1;stroke:none;stroke-width:0.13584511"
       id="text3899">
      <path
         d="M 6.2957421,200.97593 H 6.641811 l 0.4380474,1.16812 0.4403468,-1.16812 h 0.346069 v 1.71654 h -0.226497 v -1.50729 L 7.1971309,202.3625 H 6.9637356 l -0.4426463,-1.17732 v 1.50729 H 6.2957421 Z"
         style="font-style:normal;font-variant:normal;font-weight:normal;font-stretch:normal;font-size:2.35464835px;font-family:sans-serif;-inkscape-font-specification:'sans-serif, Normal';font-variant-ligatures:normal;font-variant-caps:normal;font-variant-numeric:normal;font-feature-settings:normal;text-align:start;writing-mode:lr-tb;text-anchor:start;stroke-width:0.13584511"
         id="path3937"
         inkscape:connector-curvature="0" />
      <path
         d="m 8.9044808,202.04518 q -0.2563899,0 -0.3552667,0.0586 -0.098877,0.0586 -0.098877,0.20006 0,0.11267 0.073583,0.17935 0.074732,0.0655 0.2023526,0.0655 0.1759088,0 0.281684,-0.12417 0.1069249,-0.12532 0.1069249,-0.33228 v -0.0471 z m 0.4219512,-0.0874 v 0.73467 H 9.1148815 V 202.497 q -0.072433,0.11727 -0.1805077,0.17361 -0.1080747,0.0552 -0.264438,0.0552 -0.1977537,0 -0.3150262,-0.11038 -0.1161228,-0.11152 -0.1161228,-0.29778 0,-0.2173 0.144866,-0.32767 0.1460158,-0.11038 0.4345982,-0.11038 h 0.2966305 v -0.0207 q 0,-0.14602 -0.096577,-0.22535 -0.095428,-0.0805 -0.269037,-0.0805 -0.1103742,0 -0.2149996,0.0265 -0.1046255,0.0264 -0.2012029,0.0793 v -0.19546 q 0.1161228,-0.0448 0.2253472,-0.0667 0.1092244,-0.023 0.2127002,-0.023 0.2793845,0 0.4173522,0.14487 0.1379677,0.14487 0.1379677,0.4392 z"
         style="font-style:normal;font-variant:normal;font-weight:normal;font-stretch:normal;font-size:2.35464835px;font-family:sans-serif;-inkscape-font-specification:'sans-serif, Normal';font-variant-ligatures:normal;font-variant-caps:normal;font-variant-numeric:normal;font-feature-settings:normal;text-align:start;writing-mode:lr-tb;text-anchor:start;stroke-width:0.13584511"
         id="path3939"
         inkscape:connector-curvature="0" />
      <path
         d="m 10.509505,201.60253 q -0.03564,-0.0207 -0.07818,-0.0299 -0.04139,-0.0104 -0.09198,-0.0104 -0.179357,0 -0.275935,0.11727 -0.095427,0.11612 -0.095427,0.33457 v 0.67834 H 9.7552813 v -1.28769 h 0.2127002 v 0.20005 q 0.066684,-0.11727 0.1736095,-0.17361 0.106925,-0.0575 0.259839,-0.0575 0.02185,0 0.04829,0.003 0.02644,0.002 0.05864,0.008 z"
         style="font-style:normal;font-variant:normal;font-weight:normal;font-stretch:normal;font-size:2.35464835px;font-family:sans-serif;-inkscape-font-specification:'sans-serif, Normal';font-variant-ligatures:normal;font-variant-caps:normal;font-variant-numeric:normal;font-feature-settings:normal;text-align:start;writing-mode:lr-tb;text-anchor:start;stroke-width:0.13584511"
         id="path3941"
         inkscape:connector-curvature="0" />
      <path
         d="m 10.725654,200.90349 h 0.2127 v 1.05661 l 0.631202,-0.55532 h 0.270187 l -0.68294,0.60245 0.711683,0.68524 h -0.275935 l -0.654197,-0.6289 v 0.6289 h -0.2127 z"
         style="font-style:normal;font-variant:normal;font-weight:normal;font-stretch:normal;font-size:2.35464835px;font-family:sans-serif;-inkscape-font-specification:'sans-serif, Normal';font-variant-ligatures:normal;font-variant-caps:normal;font-variant-numeric:normal;font-feature-settings:normal;text-align:start;writing-mode:lr-tb;text-anchor:start;stroke-width:0.13584511"
         id="path3943"
         inkscape:connector-curvature="0" />
      <path
         d="m 13.851772,201.65197 q 0.07933,-0.14257 0.189705,-0.2104 0.110374,-0.0678 0.259839,-0.0678 0.201203,0 0.310427,0.14142 0.109225,0.14027 0.109225,0.40011 v 0.77721 h -0.2127 v -0.77032 q 0,-0.1851 -0.06553,-0.27478 -0.06554,-0.0897 -0.200053,-0.0897 -0.164412,0 -0.259839,0.10922 -0.09543,0.10923 -0.09543,0.29778 v 0.72778 h -0.2127 v -0.77032 q 0,-0.18625 -0.06554,-0.27478 -0.06553,-0.0897 -0.202352,-0.0897 -0.162112,0 -0.25754,0.11037 -0.09543,0.10923 -0.09543,0.29663 v 0.72778 h -0.2127 v -1.28769 h 0.2127 v 0.20005 q 0.07243,-0.11842 0.17361,-0.17476 0.101176,-0.0563 0.240293,-0.0563 0.140268,0 0.237995,0.0713 0.09888,0.0713 0.146016,0.20695 z"
         style="font-style:normal;font-variant:normal;font-weight:normal;font-stretch:normal;font-size:2.35464835px;font-family:sans-serif;-inkscape-font-specification:'sans-serif, Normal';font-variant-ligatures:normal;font-variant-caps:normal;font-variant-numeric:normal;font-feature-settings:normal;text-align:start;writing-mode:lr-tb;text-anchor:start;stroke-width:0.13584511"
         id="path3945"
         inkscape:connector-curvature="0" />
      <path
         d="m 15.643052,201.55309 q -0.17016,0 -0.269037,0.13337 -0.09888,0.13222 -0.09888,0.36331 0,0.2311 0.09773,0.36447 0.09888,0.13222 0.270186,0.13222 0.169011,0 0.267887,-0.13337 0.09888,-0.13337 0.09888,-0.36332 0,-0.22879 -0.09888,-0.36216 -0.09888,-0.13452 -0.267886,-0.13452 z m 0,-0.17936 q 0.275936,0 0.433449,0.17936 0.157513,0.17936 0.157513,0.49668 0,0.31618 -0.157513,0.49669 -0.157513,0.17936 -0.433449,0.17936 -0.277085,0 -0.434598,-0.17936 -0.156363,-0.18051 -0.156363,-0.49669 0,-0.31732 0.156363,-0.49668 0.157513,-0.17936 0.434598,-0.17936 z"
         style="font-style:normal;font-variant:normal;font-weight:normal;font-stretch:normal;font-size:2.35464835px;font-family:sans-serif;-inkscape-font-specification:'sans-serif, Normal';font-variant-ligatures:normal;font-variant-caps:normal;font-variant-numeric:normal;font-feature-settings:normal;text-align:start;writing-mode:lr-tb;text-anchor:start;stroke-width:0.13584511"
         id="path3947"
         inkscape:connector-curvature="0" />
      <path
         d="m 17.430883,201.60023 v -0.69674 h 0.211551 v 1.78898 h -0.211551 v -0.19315 q -0.06668,0.11497 -0.16901,0.17131 -0.101176,0.0552 -0.243743,0.0552 -0.233395,0 -0.380561,-0.18626 -0.146016,-0.18626 -0.146016,-0.48979 0,-0.30352 0.146016,-0.48978 0.147166,-0.18626 0.380561,-0.18626 0.142567,0 0.243743,0.0563 0.102326,0.0552 0.16901,0.17016 z m -0.720881,0.44954 q 0,0.2334 0.09543,0.36677 0.09658,0.13222 0.264438,0.13222 0.167861,0 0.264438,-0.13222 0.09658,-0.13337 0.09658,-0.36677 0,-0.23339 -0.09658,-0.36561 -0.09658,-0.13337 -0.264438,-0.13337 -0.167861,0 -0.264438,0.13337 -0.09543,0.13222 -0.09543,0.36561 z"
         style="font-style:normal;font-variant:normal;font-weight:normal;font-stretch:normal;font-size:2.35464835px;font-family:sans-serif;-inkscape-font-specification:'sans-serif, Normal';font-variant-ligatures:normal;font-variant-caps:normal;font-variant-numeric:normal;font-feature-settings:normal;text-align:start;writing-mode:lr-tb;text-anchor:start;stroke-width:0.13584511"
         id="path3949"
         inkscape:connector-curvature="0" />
    </g>
    <g
       aria-label="toot-toot"
       style="font-style:normal;font-variant:normal;font-weight:normal;font-stretch:normal;font-size:4.23333311px;line-height:1.25;font-family:sans-serif;-inkscape-font-specification:'sans-serif, Normal';font-variant-ligatures:normal;font-variant-caps:normal;font-variant-numeric:normal;font-feature-settings:normal;text-align:start;letter-spacing:0px;word-spacing:0px;writing-mode:lr-tb;text-anchor:start;fill:#000000;fill-opacity:1;stroke:none;stroke-width:0.26458332"
       id="text3954"
       transform="translate(0,-4.2333335)">
      <path
         d="m 4.8274401,292.98614 v 0.54777 h 0.6528456 v 0.24633 H 4.8274401 v 1.04731 q 0,0.23598 0.063734,0.30316 0.065457,0.0672 0.2635498,0.0672 h 0.3255616 v 0.26528 H 5.1547241 q -0.3669026,0 -0.506429,-0.13609 -0.1395263,-0.1378 -0.1395263,-0.49953 v -1.04731 h -0.232544 v -0.24633 h 0.232544 v -0.54777 z"
         style="font-style:normal;font-variant:normal;font-weight:normal;font-stretch:normal;font-size:3.52777767px;font-family:sans-serif;-inkscape-font-specification:'sans-serif, Normal';font-variant-ligatures:normal;font-variant-caps:normal;font-variant-numeric:normal;font-feature-settings:normal;text-align:start;writing-mode:lr-tb;text-anchor:start;stroke-width:0.26458332"
         id="path4088"
         inkscape:connector-curvature="0" />
      <path
         d="m 6.6464504,293.75612 q -0.254937,0 -0.4030761,0.19982 -0.1481391,0.19809 -0.1481391,0.54432 0,0.34623 0.1464165,0.54605 0.1481391,0.19809 0.4047987,0.19809 0.2532146,0 0.4013537,-0.19981 0.1481391,-0.19982 0.1481391,-0.54433 0,-0.34279 -0.1481391,-0.5426 -0.1481391,-0.20154 -0.4013537,-0.20154 z m 0,-0.26872 q 0.4134115,0 0.6494005,0.26872 0.2359891,0.26872 0.2359891,0.74414 0,0.4737 -0.2359891,0.74414 -0.235989,0.26872 -0.6494005,0.26872 -0.4151339,0 -0.651123,-0.26872 -0.2342665,-0.27044 -0.2342665,-0.74414 0,-0.47542 0.2342665,-0.74414 0.2359891,-0.26872 0.651123,-0.26872 z"
         style="font-style:normal;font-variant:normal;font-weight:normal;font-stretch:normal;font-size:3.52777767px;font-family:sans-serif;-inkscape-font-specification:'sans-serif, Normal';font-variant-ligatures:normal;font-variant-caps:normal;font-variant-numeric:normal;font-feature-settings:normal;text-align:start;writing-mode:lr-tb;text-anchor:start;stroke-width:0.26458332"
         id="path4090"
         inkscape:connector-curvature="0" />
      <path
         d="m 8.8030804,293.75612 q -0.2549371,0 -0.4030762,0.19982 -0.1481391,0.19809 -0.1481391,0.54432 0,0.34623 0.1464166,0.54605 0.1481391,0.19809 0.4047987,0.19809 0.2532145,0 0.4013536,-0.19981 0.1481391,-0.19982 0.1481391,-0.54433 0,-0.34279 -0.1481391,-0.5426 -0.1481391,-0.20154 -0.4013536,-0.20154 z m 0,-0.26872 q 0.4134114,0 0.6494004,0.26872 0.2359891,0.26872 0.2359891,0.74414 0,0.4737 -0.2359891,0.74414 -0.235989,0.26872 -0.6494004,0.26872 -0.415134,0 -0.6511231,-0.26872 -0.2342664,-0.27044 -0.2342664,-0.74414 0,-0.47542 0.2342664,-0.74414 0.2359891,-0.26872 0.6511231,-0.26872 z"
         style="font-style:normal;font-variant:normal;font-weight:normal;font-stretch:normal;font-size:3.52777767px;font-family:sans-serif;-inkscape-font-specification:'sans-serif, Normal';font-variant-ligatures:normal;font-variant-caps:normal;font-variant-numeric:normal;font-feature-settings:normal;text-align:start;writing-mode:lr-tb;text-anchor:start;stroke-width:0.26458332"
         id="path4092"
         inkscape:connector-curvature="0" />
      <path
         d="m 10.525628,292.98614 v 0.54777 h 0.652845 v 0.24633 h -0.652845 v 1.04731 q 0,0.23598 0.06373,0.30316 0.06546,0.0672 0.26355,0.0672 h 0.325561 v 0.26528 h -0.325561 q -0.366903,0 -0.506429,-0.13609 -0.139526,-0.1378 -0.139526,-0.49953 v -1.04731 H 9.9744127 v -0.24633 h 0.2325443 v -0.54777 z"
         style="font-style:normal;font-variant:normal;font-weight:normal;font-stretch:normal;font-size:3.52777767px;font-family:sans-serif;-inkscape-font-specification:'sans-serif, Normal';font-variant-ligatures:normal;font-variant-caps:normal;font-variant-numeric:normal;font-feature-settings:normal;text-align:start;writing-mode:lr-tb;text-anchor:start;stroke-width:0.26458332"
         id="path4094"
         inkscape:connector-curvature="0" />
      <path
         d="m 11.436856,294.35557 h 0.928453 v 0.28249 h -0.928453 z"
         style="font-style:normal;font-variant:normal;font-weight:normal;font-stretch:normal;font-size:3.52777767px;font-family:sans-serif;-inkscape-font-specification:'sans-serif, Normal';font-variant-ligatures:normal;font-variant-caps:normal;font-variant-numeric:normal;font-feature-settings:normal;text-align:start;writing-mode:lr-tb;text-anchor:start;stroke-width:0.26458332"
         id="path4096"
         inkscape:connector-curvature="0" />
      <path
         d="m 13.185242,292.98614 v 0.54777 h 0.652845 v 0.24633 h -0.652845 v 1.04731 q 0,0.23598 0.06373,0.30316 0.06546,0.0672 0.26355,0.0672 h 0.325561 v 0.26528 h -0.325561 q -0.366903,0 -0.506429,-0.13609 -0.139527,-0.1378 -0.139527,-0.49953 v -1.04731 h -0.232544 v -0.24633 h 0.232544 v -0.54777 z"
         style="font-style:normal;font-variant:normal;font-weight:normal;font-stretch:normal;font-size:3.52777767px;font-family:sans-serif;-inkscape-font-specification:'sans-serif, Normal';font-variant-ligatures:normal;font-variant-caps:normal;font-variant-numeric:normal;font-feature-settings:normal;text-align:start;writing-mode:lr-tb;text-anchor:start;stroke-width:0.26458332"
         id="path4098"
         inkscape:connector-curvature="0" />
      <path
         d="m 15.004252,293.75612 q -0.254937,0 -0.403076,0.19982 -0.148139,0.19809 -0.148139,0.54432 0,0.34623 0.146417,0.54605 0.148139,0.19809 0.404798,0.19809 0.253215,0 0.401354,-0.19981 0.148139,-0.19982 0.148139,-0.54433 0,-0.34279 -0.148139,-0.5426 -0.148139,-0.20154 -0.401354,-0.20154 z m 0,-0.26872 q 0.413412,0 0.649401,0.26872 0.235989,0.26872 0.235989,0.74414 0,0.4737 -0.235989,0.74414 -0.235989,0.26872 -0.649401,0.26872 -0.415134,0 -0.651123,-0.26872 -0.234266,-0.27044 -0.234266,-0.74414 0,-0.47542 0.234266,-0.74414 0.235989,-0.26872 0.651123,-0.26872 z"
         style="font-style:normal;font-variant:normal;font-weight:normal;font-stretch:normal;font-size:3.52777767px;font-family:sans-serif;-inkscape-font-specification:'sans-serif, Normal';font-variant-ligatures:normal;font-variant-caps:normal;font-variant-numeric:normal;font-feature-settings:normal;text-align:start;writing-mode:lr-tb;text-anchor:start;stroke-width:0.26458332"
         id="path4100"
         inkscape:connector-curvature="0" />
      <path
         d="m 17.160882,293.75612 q -0.254937,0 -0.403076,0.19982 -0.148139,0.19809 -0.148139,0.54432 0,0.34623 0.146416,0.54605 0.148139,0.19809 0.404799,0.19809 0.253214,0 0.401353,-0.19981 0.14814,-0.19982 0.14814,-0.54433 0,-0.34279 -0.14814,-0.5426 -0.148139,-0.20154 -0.401353,-0.20154 z m 0,-0.26872 q 0.413411,0 0.6494,0.26872 0.235989,0.26872 0.235989,0.74414 0,0.4737 -0.235989,0.74414 -0.235989,0.26872 -0.6494,0.26872 -0.415134,0 -0.651123,-0.26872 -0.234267,-0.27044 -0.234267,-0.74414 0,-0.47542 0.234267,-0.74414 0.235989,-0.26872 0.651123,-0.26872 z"
         style="font-style:normal;font-variant:normal;font-weight:normal;font-stretch:normal;font-size:3.52777767px;font-family:sans-serif;-inkscape-font-specification:'sans-serif, Normal';font-variant-ligatures:normal;font-variant-caps:normal;font-variant-numeric:normal;font-feature-settings:normal;text-align:start;writing-mode:lr-tb;text-anchor:start;stroke-width:0.26458332"
         id="path4102"
         inkscape:connector-curvature="0" />
      <path
         d="m 18.883429,292.98614 v 0.54777 h 0.652846 v 0.24633 h -0.652846 v 1.04731 q 0,0.23598 0.06374,0.30316 0.06546,0.0672 0.263549,0.0672 h 0.325562 v 0.26528 h -0.325562 q -0.366902,0 -0.506429,-0.13609 -0.139526,-0.1378 -0.139526,-0.49953 v -1.04731 h -0.232544 v -0.24633 h 0.232544 v -0.54777 z"
         style="font-style:normal;font-variant:normal;font-weight:normal;font-stretch:normal;font-size:3.52777767px;font-family:sans-serif;-inkscape-font-specification:'sans-serif, Normal';font-variant-ligatures:normal;font-variant-caps:normal;font-variant-numeric:normal;font-feature-settings:normal;text-align:start;writing-mode:lr-tb;text-anchor:start;stroke-width:0.26458332"
         id="path4104"
         inkscape:connector-curvature="0" />
    </g>
    <g
       id="g4202"
       transform="matrix(0.12851839,0,0,0.12851839,9.6172641,284.20624)">
      <path
         id="path4179"
         d="M 5.622,33.051 2.948,30.378 23.337,9.987 c 3.344,-3.343 1.337,-8.021 2.007,-8.689 0.666,-0.67 1.335,-0.002 1.335,-0.002 l 8.023,8.023 c 0.668,0.668 0,1.336 0,1.336 -0.669,0.67 -5.778,-0.908 -8.692,2.006 z"
         inkscape:connector-curvature="0"
         style="fill:#fcab40" />
      <path
         id="path4181"
         d="m 5.457,33.891 c 0.925,-0.925 0.925,-2.424 0,-3.35 -0.924,-0.924 -2.424,-0.924 -3.349,0 l 0.087,0.087 c -0.371,-0.334 -0.938,-0.331 -1.296,0.027 -0.369,0.368 -0.369,0.968 0,1.336 L 4.008,35.1 c 0.37,0.369 0.968,0.369 1.337,0 0.355,-0.356 0.36,-0.919 0.032,-1.29 z"
         inkscape:connector-curvature="0"
         style="fill:#ccd6dd" />
      <path
         id="path4183"
         d="m 13.31,33.709 c -1.516,0 -2.939,-0.59 -4.011,-1.661 -1.071,-1.07 -1.661,-2.495 -1.661,-4.011 0,-1.515 0.59,-2.939 1.661,-4.011 L 19.995,13.33 c 1.071,-1.071 2.496,-1.661 4.012,-1.661 1.515,0 2.94,0.59 4.011,1.661 2.211,2.212 2.211,5.811 0,8.022 L 17.322,32.047 c -1.072,1.071 -2.496,1.662 -4.012,1.662 z M 24.007,15.45 c -0.506,0 -0.98,0.197 -1.338,0.554 L 11.974,26.7 c -0.357,0.357 -0.554,0.832 -0.554,1.337 0,0.506 0.197,0.979 0.553,1.336 0.358,0.357 0.832,0.555 1.337,0.555 0.505,0 0.98,-0.197 1.337,-0.555 L 25.343,18.678 c 0.737,-0.737 0.736,-1.937 -0.001,-2.674 -0.356,-0.357 -0.83,-0.554 -1.335,-0.554 z"
         inkscape:connector-curvature="0"
         style="fill:#fcab40" />
      <path
         id="path4185"
         d="m 25.344,24.026 c 0.736,0.738 1.936,0.738 2.674,0 0.738,-0.739 0.738,-1.937 0,-2.674 l -8.022,-8.023 c -0.739,-0.738 -1.935,-0.738 -2.673,0 -0.739,0.739 -0.739,1.937 0,2.675 z m -4.012,4.011 c 0.738,0.738 1.937,0.738 2.674,0 0.738,-0.739 0.738,-1.936 0.002,-2.674 L 15.985,17.34 c -0.739,-0.738 -1.936,-0.738 -2.675,0 -0.738,0.738 -0.738,1.936 0,2.675 z m -4.01,4.011 c 0.738,0.738 1.934,0.738 2.673,0 0.738,-0.738 0.738,-1.937 0,-2.674 l -8.021,-8.022 c -0.739,-0.738 -1.936,-0.738 -2.675,0 -0.738,0.737 -0.738,1.935 0,2.674 z"
         inkscape:connector-curvature="0"
         style="fill:#fcab40" />
      <path
         id="path4187"
         d="m 14.648,13.329 c 0.369,0.369 0.968,0.369 1.337,0 l 1.337,-1.336 c 0.369,-0.369 0.369,-0.968 0,-1.338 -0.37,-0.369 -0.968,-0.369 -1.337,0 l -1.337,1.338 c -0.37,0.369 -0.37,0.967 0,1.336 z m -4.011,4.012 c 0.37,0.371 0.967,0.37 1.337,0 l 1.336,-1.337 c 0.37,-0.37 0.371,-0.967 0,-1.337 -0.369,-0.37 -0.967,-0.37 -1.337,0 l -1.337,1.337 c -0.369,0.37 -0.369,0.968 0.001,1.337 z m -4.012,4.012 c 0.37,0.37 0.967,0.37 1.337,0 l 1.337,-1.338 c 0.37,-0.369 0.37,-0.967 0,-1.337 -0.369,-0.369 -0.967,-0.369 -1.336,0 l -1.337,1.338 c -0.37,0.369 -0.37,0.967 -0.001,1.337 z"
         inkscape:connector-curvature="0"
         style="fill:#ccd6dd" />
    </g>
    <g
       aria-label="Square"
       style="font-style:normal;font-weight:normal;font-size:8.64411736px;line-height:1.25;font-family:sans-serif;letter-spacing:0px;word-spacing:0px;fill:#000000;fill-opacity:1;stroke:none;stroke-width:0.21610293"
       id="text4206">
      <path
         d="m 8.3537764,278.65264 v 0.27717 q -0.1617958,-0.0774 -0.3053017,-0.11537 -0.1435059,-0.038 -0.2771633,-0.038 -0.2321418,0 -0.3587646,0.09 -0.1252159,0.0901 -0.1252159,0.25606 0,0.13929 0.083008,0.21104 0.084415,0.0703 0.3179639,0.11396 l 0.1716443,0.0352 q 0.317964,0.0605 0.4685044,0.21386 0.1519474,0.15194 0.1519474,0.408 0,0.30531 -0.2054104,0.46288 -0.2040034,0.15758 -0.5993479,0.15758 -0.1491336,0 -0.317964,-0.0338 -0.1674235,-0.0338 -0.3475093,-0.0999 v -0.29264 q 0.1730512,0.0971 0.3390678,0.14632 0.1660166,0.0492 0.3264055,0.0492 0.2433971,0 0.3756476,-0.0957 0.1322505,-0.0957 0.1322505,-0.27294 0,-0.15476 -0.09567,-0.24199 -0.094264,-0.0872 -0.3109294,-0.13085 l -0.1730512,-0.0338 q -0.3179639,-0.0633 -0.4600628,-0.19838 -0.142099,-0.13506 -0.142099,-0.37565 0,-0.27857 0.1955619,-0.43896 0.1969688,-0.16038 0.5416643,-0.16038 0.1477266,0 0.3010809,0.0267 0.1533543,0.0267 0.3137432,0.0802 z"
         style="font-style:normal;font-variant:normal;font-weight:normal;font-stretch:normal;font-size:2.88137245px;font-family:sans-serif;-inkscape-font-specification:'sans-serif, Normal';font-variant-ligatures:normal;font-variant-caps:normal;font-variant-numeric:normal;font-feature-settings:normal;text-align:start;writing-mode:lr-tb;text-anchor:start;stroke-width:0.21610293"
         id="path4208" />
      <path
         d="m 9.0670849,279.89777 q 0,0.2856 0.1167744,0.4488 0.1181812,0.1618 0.3235916,0.1618 0.2054103,0 0.3235916,-0.1618 0.1181813,-0.1632 0.1181813,-0.4488 0,-0.28561 -0.1181813,-0.4474 -0.1181813,-0.16321 -0.3235916,-0.16321 -0.2054104,0 -0.3235916,0.16321 -0.1167744,0.16179 -0.1167744,0.4474 z m 0.8821389,0.5501 q -0.081601,0.14069 -0.2068173,0.20963 -0.1238089,0.0675 -0.298267,0.0675 -0.2856048,0 -0.4656906,-0.22793 -0.1786788,-0.22792 -0.1786788,-0.59934 0,-0.37143 0.1786788,-0.59935 0.1800858,-0.22792 0.4656906,-0.22792 0.1744581,0 0.298267,0.0689 0.1252159,0.0675 0.2068173,0.20822 v -0.23918 h 0.2588732 v 2.1751 H 9.9492238 Z"
         style="font-style:normal;font-variant:normal;font-weight:normal;font-stretch:normal;font-size:2.88137245px;font-family:sans-serif;-inkscape-font-specification:'sans-serif, Normal';font-variant-ligatures:normal;font-variant-caps:normal;font-variant-numeric:normal;font-feature-settings:normal;text-align:start;writing-mode:lr-tb;text-anchor:start;stroke-width:0.21610293"
         id="path4210" />
      <path
         d="m 10.714588,280.06238 v -0.9539 h 0.258874 v 0.94405 q 0,0.2237 0.08723,0.33625 0.08723,0.11115 0.261687,0.11115 0.209631,0 0.330626,-0.13366 0.122402,-0.13366 0.122402,-0.36439 v -0.8934 h 0.258873 v 1.57575 h -0.258873 v -0.24199 q -0.09426,0.14351 -0.219479,0.21386 -0.123809,0.0689 -0.288419,0.0689 -0.271536,0 -0.412228,-0.16884 -0.140692,-0.16883 -0.140692,-0.49382 z m 0.651404,-0.99188 z"
         style="font-style:normal;font-variant:normal;font-weight:normal;font-stretch:normal;font-size:2.88137245px;font-family:sans-serif;-inkscape-font-specification:'sans-serif, Normal';font-variant-ligatures:normal;font-variant-caps:normal;font-variant-numeric:normal;font-feature-settings:normal;text-align:start;writing-mode:lr-tb;text-anchor:start;stroke-width:0.21610293"
         id="path4212" />
      <path
         d="m 13.286438,279.89214 q -0.313743,0 -0.434738,0.0718 -0.120995,0.0718 -0.120995,0.24481 0,0.13787 0.09004,0.21948 0.09145,0.0802 0.247618,0.0802 0.215259,0 0.344695,-0.15195 0.130844,-0.15335 0.130844,-0.4066 v -0.0577 z m 0.51634,-0.10693 v 0.89902 h -0.258873 v -0.23917 q -0.08864,0.1435 -0.220887,0.21244 -0.13225,0.0675 -0.323591,0.0675 -0.241991,0 -0.385496,-0.13507 -0.142099,-0.13647 -0.142099,-0.36439 0,-0.26591 0.177272,-0.40097 0.178678,-0.13507 0.531815,-0.13507 h 0.362986 v -0.0253 q 0,-0.17868 -0.118182,-0.27576 -0.116774,-0.0985 -0.329219,-0.0985 -0.135064,0 -0.263094,0.0324 -0.12803,0.0324 -0.246211,0.0971 v -0.23917 q 0.142099,-0.0549 0.275756,-0.0816 0.133658,-0.0281 0.260281,-0.0281 0.341881,0 0.510712,0.17727 0.16883,0.17727 0.16883,0.53744 z"
         style="font-style:normal;font-variant:normal;font-weight:normal;font-stretch:normal;font-size:2.88137245px;font-family:sans-serif;-inkscape-font-specification:'sans-serif, Normal';font-variant-ligatures:normal;font-variant-caps:normal;font-variant-numeric:normal;font-feature-settings:normal;text-align:start;writing-mode:lr-tb;text-anchor:start;stroke-width:0.21610293"
         id="path4214" />
      <path
         d="m 15.250499,279.35047 q -0.04361,-0.0253 -0.09567,-0.0366 -0.05065,-0.0127 -0.112553,-0.0127 -0.21948,0 -0.337661,0.14351 -0.116774,0.1421 -0.116774,0.40941 v 0.83008 h -0.260281 v -1.57575 h 0.260281 v 0.24481 q 0.0816,-0.14351 0.212445,-0.21245 0.130843,-0.0703 0.317963,-0.0703 0.02673,0 0.05909,0.004 0.03236,0.003 0.07175,0.01 z"
         style="font-style:normal;font-variant:normal;font-weight:normal;font-stretch:normal;font-size:2.88137245px;font-family:sans-serif;-inkscape-font-specification:'sans-serif, Normal';font-variant-ligatures:normal;font-variant-caps:normal;font-variant-numeric:normal;font-feature-settings:normal;text-align:start;writing-mode:lr-tb;text-anchor:start;stroke-width:0.21610293"
         id="path4216" />
      <path
         d="m 16.810774,279.83164 v 0.12662 h -1.190255 q 0.01688,0.26732 0.160389,0.40801 0.144913,0.13929 0.402379,0.13929 0.149134,0 0.288419,-0.0366 0.140692,-0.0366 0.27857,-0.10974 v 0.2448 q -0.139285,0.0591 -0.285605,0.09 -0.146319,0.031 -0.29686,0.031 -0.377054,0 -0.597941,-0.21948 -0.219479,-0.21948 -0.219479,-0.59372 0,-0.38691 0.208224,-0.61342 0.209631,-0.22792 0.564175,-0.22792 0.317964,0 0.50227,0.20541 0.185714,0.204 0.185714,0.55573 z m -0.258874,-0.076 q -0.0028,-0.21245 -0.119588,-0.33907 -0.115367,-0.12662 -0.306708,-0.12662 -0.216666,0 -0.34751,0.1224 -0.129436,0.1224 -0.149133,0.34469 z"
         style="font-style:normal;font-variant:normal;font-weight:normal;font-stretch:normal;font-size:2.88137245px;font-family:sans-serif;-inkscape-font-specification:'sans-serif, Normal';font-variant-ligatures:normal;font-variant-caps:normal;font-variant-numeric:normal;font-feature-settings:normal;text-align:start;writing-mode:lr-tb;text-anchor:start;stroke-width:0.21610293"
         id="path4218" />
    </g>
  </g>
</svg>
