<?xml version="1.0" encoding="UTF-8" standalone="no"?>
<!-- Created with Inkscape (http://www.inkscape.org/) -->

<svg
   xmlns:dc="http://purl.org/dc/elements/1.1/"
   xmlns:cc="http://creativecommons.org/ns#"
   xmlns:rdf="http://www.w3.org/1999/02/22-rdf-syntax-ns#"
   xmlns:svg="http://www.w3.org/2000/svg"
   xmlns="http://www.w3.org/2000/svg"
   xmlns:sodipodi="http://sodipodi.sourceforge.net/DTD/sodipodi-0.dtd"
   xmlns:inkscape="http://www.inkscape.org/namespaces/inkscape"
   width="152.85715"
   height="380.00006"
   viewBox="0 0 40.443456 100.54169"
   version="1.1"
   id="svg8"
   inkscape:version="0.92.3 (2405546, 2018-03-11)"
   sodipodi:docname="NGHarmonizer.svg">
  <defs
     id="defs2" />
  <sodipodi:namedview
     id="base"
     pagecolor="#ffffff"
     bordercolor="#666666"
     borderopacity="1.0"
     inkscape:pageopacity="0.0"
     inkscape:pageshadow="2"
     inkscape:zoom="3.959798"
     inkscape:cx="74.978285"
     inkscape:cy="84.905169"
     inkscape:document-units="mm"
     inkscape:current-layer="layer1"
     showgrid="false"
     units="px"
     inkscape:snap-bbox="true"
     inkscape:snap-page="true"
     inkscape:bbox-nodes="true"
     inkscape:snap-bbox-edge-midpoints="true"
     inkscape:window-width="2048"
     inkscape:window-height="1057"
     inkscape:window-x="0"
     inkscape:window-y="34"
     inkscape:window-maximized="1" />
  <metadata
     id="metadata5">
    <rdf:RDF>
      <cc:Work
         rdf:about="">
        <dc:format>image/svg+xml</dc:format>
        <dc:type
           rdf:resource="http://purl.org/dc/dcmitype/StillImage" />
        <dc:title />
      </cc:Work>
    </rdf:RDF>
  </metadata>
  <g
     inkscape:label="Layer 1"
     inkscape:groupmode="layer"
     id="layer1"
     transform="translate(0,-196.45831)">
    <path
       style="opacity:1;vector-effect:none;fill:#f0f0f0;fill-opacity:1;fill-rule:evenodd;stroke:none;stroke-width:0.63346273;stroke-linecap:butt;stroke-linejoin:round;stroke-miterlimit:4;stroke-dasharray:none;stroke-dashoffset:0;stroke-opacity:1;paint-order:normal"
       d="M 0,196.45831 H 40.443452 V 296.99999 H 0 Z"
       id="rect817"
       inkscape:connector-curvature="0" />
    <g
       aria-label="My Module"
       style="font-style:normal;font-variant:normal;font-weight:normal;font-stretch:normal;font-size:3.88055563px;line-height:6.61458302px;font-family:DINPro;-inkscape-font-specification:DINPro;font-variant-ligatures:normal;font-variant-caps:normal;font-variant-numeric:normal;font-feature-settings:normal;text-align:center;letter-spacing:0px;word-spacing:0px;writing-mode:lr-tb;text-anchor:middle;fill:#000000;fill-opacity:1;stroke:none;stroke-width:0.26458332px;stroke-linecap:butt;stroke-linejoin:miter;stroke-opacity:1"
       id="text925"
       transform="translate(0,-1.0583333)">
      <text
         xml:space="preserve"
         style="font-style:normal;font-weight:normal;font-size:10.58333302px;line-height:1.25;font-family:sans-serif;letter-spacing:0px;word-spacing:0px;fill:#000000;fill-opacity:1;stroke:none;stroke-width:0.07000434px"
         x="2.9065561"
         y="203.34468"
         id="text3891"><tspan
           sodipodi:role="line"
           id="tspan3889"
           x="2.9065561"
           y="212.70845"
           style="stroke-width:0.07000434px" /></text>
      <text
         xml:space="preserve"
         style="font-style:normal;font-variant:normal;font-weight:normal;font-stretch:normal;font-size:4.23333311px;line-height:1.25;font-family:sans-serif;-inkscape-font-specification:'sans-serif, Normal';font-variant-ligatures:normal;font-variant-caps:normal;font-variant-numeric:normal;font-feature-settings:normal;text-align:center;letter-spacing:0px;word-spacing:0px;writing-mode:lr-tb;text-anchor:middle;fill:#000000;fill-opacity:1;stroke:none;stroke-width:0.07000434px"
         x="2.5724692"
         y="203.34468"
         id="text3895"><tspan
           sodipodi:role="line"
           id="tspan3893"
           x="2.5724692"
           y="207.09019"
           style="stroke-width:0.07000434px" /></text>
      <text
         xml:space="preserve"
         style="font-style:normal;font-variant:normal;font-weight:normal;font-stretch:normal;font-size:3.52777767px;line-height:1.25;font-family:sans-serif;-inkscape-font-specification:'sans-serif, Normal';font-variant-ligatures:normal;font-variant-caps:normal;font-variant-numeric:normal;font-feature-settings:normal;text-align:center;letter-spacing:0px;word-spacing:0px;writing-mode:lr-tb;text-anchor:middle;fill:#000000;fill-opacity:1;stroke:none;stroke-width:0.07000434px"
         x="7.784225"
         y="203.04401"
         id="text3899"><tspan
           sodipodi:role="line"
           id="tspan3897"
           x="7.784225"
           y="206.16527"
           style="stroke-width:0.07000434px" /></text>
    </g>
    <text
       xml:space="preserve"
       style="font-style:normal;font-weight:normal;font-size:10.58333302px;line-height:1.25;font-family:sans-serif;letter-spacing:0px;word-spacing:0px;fill:#000000;fill-opacity:1;stroke:none;stroke-width:0.26458332"
       x="6.6251712"
       y="206.55183"
       id="text3879"><tspan
         sodipodi:role="line"
         id="tspan3877"
         x="6.6251712"
         y="215.9156"
         style="stroke-width:0.26458332" /></text>
    <flowRoot
       xml:space="preserve"
       id="flowRoot3934"
       style="font-style:normal;font-variant:normal;font-weight:normal;font-stretch:normal;font-size:6.66666651px;line-height:1.25;font-family:sans-serif;-inkscape-font-specification:'sans-serif, Normal';font-variant-ligatures:normal;font-variant-caps:normal;font-variant-numeric:normal;font-feature-settings:normal;text-align:center;letter-spacing:0px;word-spacing:0px;writing-mode:lr-tb;text-anchor:middle;fill:#000000;fill-opacity:1;stroke:none"><flowRegion
         id="flowRegion3936"><rect
           id="rect3938"
           width="49.497475"
           height="21.844549"
           x="15.531096"
           y="12.051935" /></flowRegion><flowPara
         id="flowPara3940" /></flowRoot>    <flowRoot
       xml:space="preserve"
       id="flowRoot3942"
       style="font-style:normal;font-variant:normal;font-weight:normal;font-stretch:normal;font-size:6.66666651px;line-height:1.25;font-family:sans-serif;-inkscape-font-specification:'sans-serif, Normal';font-variant-ligatures:normal;font-variant-caps:normal;font-variant-numeric:normal;font-feature-settings:normal;text-align:center;letter-spacing:0px;word-spacing:0px;writing-mode:lr-tb;text-anchor:middle;fill:#000000;fill-opacity:1;stroke:none"
       transform="matrix(0.26458333,0,0,0.26458333,0,196.45832)"><flowRegion
         id="flowRegion3944"><rect
           id="rect3946"
           width="65.912453"
           height="39.648487"
           x="8.9651041"
           y="8.5164013" /></flowRegion><flowPara
         id="flowPara3948" /></flowRoot>    <g
       aria-label="NG Harmonizer"
       style="font-style:normal;font-variant:normal;font-weight:normal;font-stretch:normal;font-size:1.76388884px;line-height:1.25;font-family:sans-serif;-inkscape-font-specification:'sans-serif, Normal';font-variant-ligatures:normal;font-variant-caps:normal;font-variant-numeric:normal;font-feature-settings:normal;text-align:center;letter-spacing:0px;word-spacing:0px;writing-mode:lr-tb;text-anchor:middle;fill:#000000;fill-opacity:1;stroke:none;stroke-width:0.26458332"
       id="text3952"
       transform="translate(-2.9924684)">
      <path
         d="m 9.3939143,202.48553 h 0.468533 l 1.1403267,2.15147 v -2.15147 h 0.337619 v 2.57177 H 10.87186 l -1.1403264,-2.15147 v 2.15147 H 9.3939143 Z"
         style="font-style:normal;font-variant:normal;font-weight:normal;font-stretch:normal;font-size:3.52777767px;font-family:sans-serif;-inkscape-font-specification:'sans-serif, Normal';font-variant-ligatures:normal;font-variant-caps:normal;font-variant-numeric:normal;font-feature-settings:normal;text-align:center;writing-mode:lr-tb;text-anchor:middle;stroke-width:0.26458332"
         id="path3956"
         inkscape:connector-curvature="0" />
      <path
         d="m 13.786411,204.69039 v -0.69074 H 13.21797 v -0.28594 h 0.91295 v 1.10415 q -0.201538,0.14297 -0.444417,0.21704 -0.242879,0.0724 -0.518487,0.0724 -0.602892,0 -0.943956,-0.3514 -0.339342,-0.35312 -0.339342,-0.98185 0,-0.63045 0.339342,-0.98185 0.341064,-0.35313 0.943956,-0.35313 0.251492,0 0.477146,0.062 0.227376,0.062 0.418579,0.18259 v 0.37034 q -0.192925,-0.16364 -0.409966,-0.24632 -0.217041,-0.0827 -0.456476,-0.0827 -0.471978,0 -0.709689,0.26355 -0.235989,0.26355 -0.235989,0.78548 0,0.52021 0.235989,0.78376 0.237711,0.26355 0.709689,0.26355 0.184313,0 0.329007,-0.031 0.144694,-0.0327 0.260105,-0.0999 z"
         style="font-style:normal;font-variant:normal;font-weight:normal;font-stretch:normal;font-size:3.52777767px;font-family:sans-serif;-inkscape-font-specification:'sans-serif, Normal';font-variant-ligatures:normal;font-variant-caps:normal;font-variant-numeric:normal;font-feature-settings:normal;text-align:center;writing-mode:lr-tb;text-anchor:middle;stroke-width:0.26458332"
         id="path3958"
         inkscape:connector-curvature="0" />
      <path
         d="m 16.885835,202.48526 h 0.347955 v 1.05419 h 1.26435 v -1.05419 h 0.347955 v 2.57176 H 18.49814 v -1.22473 h -1.26435 v 1.22473 h -0.347955 z"
         style="font-style:normal;font-variant:normal;font-weight:normal;font-stretch:normal;font-size:3.52777767px;font-family:sans-serif;-inkscape-font-specification:'sans-serif, Normal';font-variant-ligatures:normal;font-variant-caps:normal;font-variant-numeric:normal;font-feature-settings:normal;text-align:center;writing-mode:lr-tb;text-anchor:middle;stroke-width:0.26458332"
         id="path3960"
         inkscape:connector-curvature="0" />
      <path
         d="m 20.401555,204.08722 q -0.384128,0 -0.532267,0.0879 -0.148139,0.0879 -0.148139,0.29973 0,0.16881 0.110243,0.26872 0.111966,0.0982 0.303169,0.0982 0.263549,0 0.422024,-0.18603 0.160197,-0.18776 0.160197,-0.49782 v -0.0706 z m 0.632175,-0.13091 v 1.10071 h -0.316948 v -0.29283 q -0.108521,0.1757 -0.27044,0.2601 -0.16192,0.0827 -0.396186,0.0827 -0.296279,0 -0.471978,-0.16536 -0.173978,-0.16709 -0.173978,-0.44614 0,-0.32556 0.217041,-0.49093 0.218764,-0.16536 0.651123,-0.16536 h 0.444418 v -0.031 q 0,-0.21876 -0.144694,-0.33762 -0.142972,-0.12058 -0.403077,-0.12058 -0.165364,0 -0.322116,0.0396 -0.156752,0.0396 -0.301446,0.11886 v -0.29283 q 0.173978,-0.0672 0.33762,-0.0999 0.163642,-0.0344 0.318671,-0.0344 0.418579,0 0.625285,0.21704 0.206705,0.21704 0.206705,0.65801 z"
         style="font-style:normal;font-variant:normal;font-weight:normal;font-stretch:normal;font-size:3.52777767px;font-family:sans-serif;-inkscape-font-specification:'sans-serif, Normal';font-variant-ligatures:normal;font-variant-caps:normal;font-variant-numeric:normal;font-feature-settings:normal;text-align:center;writing-mode:lr-tb;text-anchor:middle;stroke-width:0.26458332"
         id="path3962"
         inkscape:connector-curvature="0" />
      <path
         d="m 22.806232,203.42404 q -0.0534,-0.031 -0.117134,-0.0448 -0.06201,-0.0155 -0.137803,-0.0155 -0.268718,0 -0.413412,0.1757 -0.142971,0.17398 -0.142971,0.50127 v 1.0163 H 21.67624 v -1.92925 h 0.318672 v 0.29972 q 0.09991,-0.1757 0.260104,-0.26011 0.160197,-0.0861 0.389296,-0.0861 0.03273,0 0.07235,0.005 0.03962,0.003 0.08785,0.0121 z"
         style="font-style:normal;font-variant:normal;font-weight:normal;font-stretch:normal;font-size:3.52777767px;font-family:sans-serif;-inkscape-font-specification:'sans-serif, Normal';font-variant-ligatures:normal;font-variant-caps:normal;font-variant-numeric:normal;font-feature-settings:normal;text-align:center;writing-mode:lr-tb;text-anchor:middle;stroke-width:0.26458332"
         id="path3964"
         inkscape:connector-curvature="0" />
      <path
         d="m 24.582179,203.49811 q 0.118856,-0.21359 0.28422,-0.31522 0.165365,-0.10163 0.389296,-0.10163 0.301446,0 0.465088,0.21187 0.163642,0.21015 0.163642,0.59945 v 1.16444 h -0.318671 v -1.15411 q 0,-0.27733 -0.09819,-0.41169 -0.09818,-0.13436 -0.299723,-0.13436 -0.246325,0 -0.389297,0.16365 -0.142971,0.16364 -0.142971,0.44614 v 1.09037 h -0.318666 v -1.15411 q 0,-0.27905 -0.09819,-0.41169 -0.09819,-0.13436 -0.303169,-0.13436 -0.242879,0 -0.38585,0.16537 -0.142972,0.16364 -0.142972,0.44442 v 1.09037 h -0.318672 v -1.92925 h 0.318672 v 0.29972 q 0.10852,-0.17742 0.260104,-0.26183 0.151585,-0.0844 0.360013,-0.0844 0.210151,0 0.356567,0.10679 0.148139,0.1068 0.218764,0.31006 z"
         style="font-style:normal;font-variant:normal;font-weight:normal;font-stretch:normal;font-size:3.52777767px;font-family:sans-serif;-inkscape-font-specification:'sans-serif, Normal';font-variant-ligatures:normal;font-variant-caps:normal;font-variant-numeric:normal;font-feature-settings:normal;text-align:center;writing-mode:lr-tb;text-anchor:middle;stroke-width:0.26458332"
         id="path3966"
         inkscape:connector-curvature="0" />
      <path
         d="m 27.265908,203.34997 q -0.254937,0 -0.403076,0.19982 -0.148139,0.19809 -0.148139,0.54432 0,0.34624 0.146416,0.54605 0.14814,0.1981 0.404799,0.1981 0.253215,0 0.401354,-0.19982 0.148139,-0.19982 0.148139,-0.54433 0,-0.34278 -0.148139,-0.5426 -0.148139,-0.20154 -0.401354,-0.20154 z m 0,-0.26871 q 0.413412,0 0.649401,0.26871 0.235989,0.26872 0.235989,0.74414 0,0.47371 -0.235989,0.74415 -0.235989,0.26871 -0.649401,0.26871 -0.415134,0 -0.651123,-0.26871 -0.234266,-0.27044 -0.234266,-0.74415 0,-0.47542 0.234266,-0.74414 0.235989,-0.26871 0.651123,-0.26871 z"
         style="font-style:normal;font-variant:normal;font-weight:normal;font-stretch:normal;font-size:3.52777767px;font-family:sans-serif;-inkscape-font-specification:'sans-serif, Normal';font-variant-ligatures:normal;font-variant-caps:normal;font-variant-numeric:normal;font-feature-settings:normal;text-align:center;writing-mode:lr-tb;text-anchor:middle;stroke-width:0.26458332"
         id="path3968"
         inkscape:connector-curvature="0" />
      <path
         d="m 30.278644,203.89258 v 1.16444 h -0.316949 v -1.15411 q 0,-0.27388 -0.106798,-0.40996 -0.106798,-0.13609 -0.320394,-0.13609 -0.256659,0 -0.404798,0.16365 -0.148139,0.16364 -0.148139,0.44614 v 1.09037 h -0.318672 v -1.92925 h 0.318672 v 0.29972 q 0.113688,-0.17398 0.266994,-0.26011 0.15503,-0.0861 0.356568,-0.0861 0.332452,0 0.502984,0.2067 0.170532,0.20499 0.170532,0.60462 z"
         style="font-style:normal;font-variant:normal;font-weight:normal;font-stretch:normal;font-size:3.52777767px;font-family:sans-serif;-inkscape-font-specification:'sans-serif, Normal';font-variant-ligatures:normal;font-variant-caps:normal;font-variant-numeric:normal;font-feature-settings:normal;text-align:center;writing-mode:lr-tb;text-anchor:middle;stroke-width:0.26458332"
         id="path3970"
         inkscape:connector-curvature="0" />
      <path
         d="m 30.914264,203.12777 h 0.316949 v 1.92925 h -0.316949 z m 0,-0.75104 h 0.316949 v 0.40136 h -0.316949 z"
         style="font-style:normal;font-variant:normal;font-weight:normal;font-stretch:normal;font-size:3.52777767px;font-family:sans-serif;-inkscape-font-specification:'sans-serif, Normal';font-variant-ligatures:normal;font-variant-caps:normal;font-variant-numeric:normal;font-feature-settings:normal;text-align:center;writing-mode:lr-tb;text-anchor:middle;stroke-width:0.26458332"
         id="path3972"
         inkscape:connector-curvature="0" />
      <path
         d="m 31.754867,203.12777 h 1.505507 v 0.28938 l -1.192003,1.38665 h 1.192003 v 0.25322 h -1.54857 v -0.28939 l 1.192003,-1.38665 h -1.14894 z"
         style="font-style:normal;font-variant:normal;font-weight:normal;font-stretch:normal;font-size:3.52777767px;font-family:sans-serif;-inkscape-font-specification:'sans-serif, Normal';font-variant-ligatures:normal;font-variant-caps:normal;font-variant-numeric:normal;font-feature-settings:normal;text-align:center;writing-mode:lr-tb;text-anchor:middle;stroke-width:0.26458332"
         id="path3974"
         inkscape:connector-curvature="0" />
      <path
         d="m 35.396333,204.01315 v 0.15503 h -1.457275 q 0.02067,0.32729 0.19637,0.49954 0.177423,0.17054 0.492649,0.17054 0.18259,0 0.353122,-0.0448 0.172255,-0.0448 0.341065,-0.13436 v 0.29972 q -0.170533,0.0724 -0.349678,0.11025 -0.179145,0.0379 -0.363457,0.0379 -0.461643,0 -0.732083,-0.26871 -0.268717,-0.26872 -0.268717,-0.72692 0,-0.4737 0.254937,-0.75103 0.256659,-0.27905 0.690741,-0.27905 0.389296,0 0.61495,0.25149 0.227376,0.24977 0.227376,0.6804 z m -0.316949,-0.093 q -0.0034,-0.26011 -0.146416,-0.41514 -0.141249,-0.15503 -0.375516,-0.15503 -0.265272,0 -0.425469,0.14987 -0.158474,0.14986 -0.18259,0.42202 z"
         style="font-style:normal;font-variant:normal;font-weight:normal;font-stretch:normal;font-size:3.52777767px;font-family:sans-serif;-inkscape-font-specification:'sans-serif, Normal';font-variant-ligatures:normal;font-variant-caps:normal;font-variant-numeric:normal;font-feature-settings:normal;text-align:center;writing-mode:lr-tb;text-anchor:middle;stroke-width:0.26458332"
         id="path3976"
         inkscape:connector-curvature="0" />
      <path
         d="m 37.034476,203.42404 q -0.0534,-0.031 -0.117133,-0.0448 -0.06201,-0.0155 -0.137804,-0.0155 -0.268718,0 -0.413412,0.1757 -0.142971,0.17398 -0.142971,0.50127 v 1.0163 h -0.318671 v -1.92925 h 0.318671 v 0.29972 q 0.09991,-0.1757 0.260105,-0.26011 0.160197,-0.0861 0.389296,-0.0861 0.03273,0 0.07235,0.005 0.03962,0.003 0.08785,0.0121 z"
         style="font-style:normal;font-variant:normal;font-weight:normal;font-stretch:normal;font-size:3.52777767px;font-family:sans-serif;-inkscape-font-specification:'sans-serif, Normal';font-variant-ligatures:normal;font-variant-caps:normal;font-variant-numeric:normal;font-feature-settings:normal;text-align:center;writing-mode:lr-tb;text-anchor:middle;stroke-width:0.26458332"
         id="path3978"
         inkscape:connector-curvature="0" />
    </g>
    <rect
       style="fill:#333333;stroke-width:0.37867755"
       id="rect38"
       width="35.212761"
       height="13.898005"
       x="2.6153471"
       y="276.82175"
       ry="1.4631376" />
    <rect
       style="fill:#333333;stroke-width:0.35037512"
       id="rect38-3"
       width="37.102585"
       height="11.292127"
       x="1.6704346"
       y="261.46088"
       ry="1.1887993" />
    <rect
       style="fill:#333333;stroke-width:0.35037512"
       id="rect38-3-6"
       width="37.102585"
       height="11.292127"
       x="1.6704344"
       y="248.09087"
       ry="1.1887993" />
  </g>
</svg>
