<?xml version="1.0" encoding="UTF-8" standalone="no"?>
<!-- Created with Inkscape (http://www.inkscape.org/) -->

<svg
   xmlns:dc="http://purl.org/dc/elements/1.1/"
   xmlns:cc="http://creativecommons.org/ns#"
   xmlns:rdf="http://www.w3.org/1999/02/22-rdf-syntax-ns#"
   xmlns:svg="http://www.w3.org/2000/svg"
   xmlns="http://www.w3.org/2000/svg"
   xmlns:sodipodi="http://sodipodi.sourceforge.net/DTD/sodipodi-0.dtd"
   xmlns:inkscape="http://www.inkscape.org/namespaces/inkscape"
   width="90"
   height="380"
   viewBox="0 0 23.812501 100.54167"
   version="1.1"
   id="svg8"
   inkscape:version="0.92.3 (2405546, 2018-03-11)"
   sodipodi:docname="NGHarmonizer.svg">
  <defs
     id="defs2" />
  <sodipodi:namedview
     id="base"
     pagecolor="#ffffff"
     bordercolor="#666666"
     borderopacity="1.0"
     inkscape:pageopacity="0.0"
     inkscape:pageshadow="2"
     inkscape:zoom="5.6"
     inkscape:cx="40.405143"
     inkscape:cy="101.1446"
     inkscape:document-units="mm"
     inkscape:current-layer="layer1"
     showgrid="false"
     units="px"
     inkscape:snap-bbox="true"
     inkscape:snap-page="true"
     inkscape:bbox-nodes="true"
     inkscape:snap-bbox-edge-midpoints="true"
     inkscape:window-width="2048"
     inkscape:window-height="1057"
     inkscape:window-x="0"
     inkscape:window-y="34"
     inkscape:window-maximized="1" />
  <metadata
     id="metadata5">
    <rdf:RDF>
      <cc:Work
         rdf:about="">
        <dc:format>image/svg+xml</dc:format>
        <dc:type
           rdf:resource="http://purl.org/dc/dcmitype/StillImage" />
        <dc:title />
      </cc:Work>
    </rdf:RDF>
  </metadata>
  <g
     inkscape:label="Layer 1"
     inkscape:groupmode="layer"
     id="layer1"
     transform="translate(0,-196.45832)">
    <path
       style="opacity:1;vector-effect:none;fill:#f0f0f0;fill-opacity:1;fill-rule:evenodd;stroke:none;stroke-width:0.48607069;stroke-linecap:butt;stroke-linejoin:round;stroke-miterlimit:4;stroke-dasharray:none;stroke-dashoffset:0;stroke-opacity:1;paint-order:normal"
       d="M 0,196.45831 H 23.8125 V 296.99999 H 0 Z"
       id="rect817"
       inkscape:connector-curvature="0" />
    <g
       aria-label="My Module"
       style="font-style:normal;font-variant:normal;font-weight:normal;font-stretch:normal;font-size:3.88055563px;line-height:6.61458302px;font-family:DINPro;-inkscape-font-specification:DINPro;font-variant-ligatures:normal;font-variant-caps:normal;font-variant-numeric:normal;font-feature-settings:normal;text-align:center;letter-spacing:0px;word-spacing:0px;writing-mode:lr-tb;text-anchor:middle;fill:#000000;fill-opacity:1;stroke:none;stroke-width:0.26458332px;stroke-linecap:butt;stroke-linejoin:miter;stroke-opacity:1"
       id="text925"
       transform="translate(0,-1.0583333)">
      <text
         xml:space="preserve"
         style="font-style:normal;font-weight:normal;font-size:10.58333302px;line-height:1.25;font-family:sans-serif;letter-spacing:0px;word-spacing:0px;fill:#000000;fill-opacity:1;stroke:none;stroke-width:0.07000434px"
         x="2.9065561"
         y="203.34468"
         id="text3891"><tspan
           sodipodi:role="line"
           id="tspan3889"
           x="2.9065561"
           y="212.70845"
           style="stroke-width:0.07000434px" /></text>
      <text
         xml:space="preserve"
         style="font-style:normal;font-variant:normal;font-weight:normal;font-stretch:normal;font-size:4.23333311px;line-height:1.25;font-family:sans-serif;-inkscape-font-specification:'sans-serif, Normal';font-variant-ligatures:normal;font-variant-caps:normal;font-variant-numeric:normal;font-feature-settings:normal;text-align:center;letter-spacing:0px;word-spacing:0px;writing-mode:lr-tb;text-anchor:middle;fill:#000000;fill-opacity:1;stroke:none;stroke-width:0.07000434px"
         x="2.5724692"
         y="203.34468"
         id="text3895"><tspan
           sodipodi:role="line"
           id="tspan3893"
           x="2.5724692"
           y="207.09019"
           style="stroke-width:0.07000434px" /></text>
      <text
         xml:space="preserve"
         style="font-style:normal;font-variant:normal;font-weight:normal;font-stretch:normal;font-size:3.52777767px;line-height:1.25;font-family:sans-serif;-inkscape-font-specification:'sans-serif, Normal';font-variant-ligatures:normal;font-variant-caps:normal;font-variant-numeric:normal;font-feature-settings:normal;text-align:center;letter-spacing:0px;word-spacing:0px;writing-mode:lr-tb;text-anchor:middle;fill:#000000;fill-opacity:1;stroke:none;stroke-width:0.07000434px"
         x="7.784225"
         y="203.04401"
         id="text3899"><tspan
           sodipodi:role="line"
           id="tspan3897"
           x="7.784225"
           y="206.16527"
           style="stroke-width:0.07000434px" /></text>
    </g>
    <g
       aria-label="Pitch"
       style="font-style:normal;font-variant:normal;font-weight:normal;font-stretch:normal;font-size:2.82222223px;line-height:6.61458302px;font-family:DINPro;-inkscape-font-specification:DINPro;font-variant-ligatures:normal;font-variant-caps:normal;font-variant-numeric:normal;font-feature-settings:normal;text-align:center;letter-spacing:0px;word-spacing:0px;writing-mode:lr-tb;text-anchor:middle;fill:#000000;fill-opacity:1;stroke:none;stroke-width:0.26458332px;stroke-linecap:butt;stroke-linejoin:miter;stroke-opacity:1"
       id="text946"
       transform="translate(0,-2.1166665)">
      <path
         d="m 10.343313,234.08358 c 0,-0.36124 -0.254,-0.58984 -0.6208893,-0.58984 H 8.9745348 v 2.00942 h 0.2144889 v -0.82691 h 0.5334 c 0.3668893,0 0.6208893,-0.23142 0.6208893,-0.59267 z m -0.214489,0 c 0,0.26529 -0.174978,0.40076 -0.4261558,0.40076 H 9.1890237 v -0.79869 h 0.5136445 c 0.2511778,0 0.4261558,0.13264 0.4261558,0.39793 z"
         style="font-size:2.82222223px;text-align:center;text-anchor:middle;stroke-width:0.26458332px"
         id="path973"
         inkscape:connector-curvature="0" />
      <path
         d="m 10.921471,235.50316 v -1.38853 h -0.2032 v 1.38853 z m 0.01411,-1.78365 v -0.2286 h -0.2286 v 0.2286 z"
         style="font-size:2.82222223px;text-align:center;text-anchor:middle;stroke-width:0.26458332px"
         id="path975"
         inkscape:connector-curvature="0" />
      <path
         d="m 11.968251,235.50316 v -0.17498 h -0.107244 c -0.129822,0 -0.189089,-0.0762 -0.189089,-0.2032 v -0.84667 h 0.296333 v -0.15522 h -0.296333 v -0.43462 h -0.2032 v 0.43462 H 11.29374 v 0.15522 h 0.174978 v 0.85232 c 0,0.20602 0.118533,0.37253 0.3556,0.37253 z"
         style="font-size:2.82222223px;text-align:center;text-anchor:middle;stroke-width:0.26458332px"
         id="path977"
         inkscape:connector-curvature="0" />
      <path
         d="m 13.346113,235.31407 -0.138289,-0.13264 c -0.104422,0.11571 -0.186267,0.15804 -0.318911,0.15804 -0.135467,0 -0.248356,-0.0536 -0.321733,-0.15804 -0.06491,-0.0903 -0.09031,-0.19756 -0.09031,-0.37254 0,-0.17498 0.0254,-0.28222 0.09031,-0.37253 0.07338,-0.10442 0.186266,-0.15805 0.321733,-0.15805 0.132644,0 0.214489,0.0395 0.318911,0.15523 l 0.138289,-0.12983 c -0.143933,-0.15522 -0.265289,-0.20602 -0.4572,-0.20602 -0.349956,0 -0.615244,0.23707 -0.615244,0.7112 0,0.47414 0.265288,0.7112 0.615244,0.7112 0.191911,0 0.313267,-0.0508 0.4572,-0.20602 z"
         style="font-size:2.82222223px;text-align:center;text-anchor:middle;stroke-width:0.26458332px"
         id="path979"
         inkscape:connector-curvature="0" />
      <path
         d="m 14.825619,235.50316 v -0.89182 c 0,-0.31327 -0.186267,-0.51365 -0.499534,-0.51365 -0.155222,0 -0.287866,0.0536 -0.389466,0.16934 v -0.77329 h -0.2032 v 2.00942 h 0.2032 v -0.85796 c 0,-0.23989 0.138289,-0.36689 0.347133,-0.36689 0.208844,0 0.338667,0.12418 0.338667,0.36689 v 0.85796 z"
         style="font-size:2.82222223px;text-align:center;text-anchor:middle;stroke-width:0.26458332px"
         id="path981"
         inkscape:connector-curvature="0" />
    </g>
    <g
       aria-label="1V/oct"
       style="font-style:normal;font-variant:normal;font-weight:normal;font-stretch:normal;font-size:2.82222223px;line-height:6.61458302px;font-family:DINPro;-inkscape-font-specification:DINPro;font-variant-ligatures:normal;font-variant-caps:normal;font-variant-numeric:normal;font-feature-settings:normal;text-align:center;letter-spacing:0px;word-spacing:0px;writing-mode:lr-tb;text-anchor:middle;fill:#000000;fill-opacity:1;stroke:none;stroke-width:0.26458332px;stroke-linecap:butt;stroke-linejoin:miter;stroke-opacity:1"
       id="text950"
       transform="translate(0,-6.0862931)">
      <path
         d="m 8.7942542,262.66519 v -2.00942 h -0.2032 l -0.3753555,0.32455 v 0.23143 l 0.3753555,-0.3302 v 1.78364 z"
         style="font-size:2.82222223px;text-align:center;text-anchor:middle;stroke-width:0.26458332px"
         id="path984"
         inkscape:connector-curvature="0" />
      <path
         d="m 10.853021,260.65577 h -0.225778 l -0.522111,1.6256 -0.5221108,-1.6256 H 9.3572434 l 0.6603996,2.00942 h 0.174978 z"
         style="font-size:2.82222223px;text-align:center;text-anchor:middle;stroke-width:0.26458332px"
         id="path986"
         inkscape:connector-curvature="0" />
      <path
         d="m 11.88278,260.44692 h -0.200378 l -0.804333,2.42712 h 0.200377 z"
         style="font-size:2.82222223px;text-align:center;text-anchor:middle;stroke-width:0.26458332px"
         id="path988"
         inkscape:connector-curvature="0" />
      <path
         d="m 13.196436,261.97092 c 0,-0.21448 -0.02822,-0.40922 -0.169334,-0.55315 -0.09596,-0.096 -0.2286,-0.15805 -0.397933,-0.15805 -0.169333,0 -0.301978,0.0621 -0.397933,0.15805 -0.141111,0.14393 -0.169334,0.33867 -0.169334,0.55315 0,0.21449 0.02822,0.40923 0.169334,0.55316 0.09595,0.096 0.2286,0.15804 0.397933,0.15804 0.169333,0 0.301978,-0.0621 0.397933,-0.15804 0.141111,-0.14393 0.169334,-0.33867 0.169334,-0.55316 z m -0.2032,0 c 0,0.15523 -0.0085,0.32738 -0.110067,0.42898 -0.06491,0.0649 -0.155222,0.1016 -0.254,0.1016 -0.09878,0 -0.186267,-0.0367 -0.251178,-0.1016 -0.1016,-0.1016 -0.112889,-0.27375 -0.112889,-0.42898 0,-0.15522 0.01129,-0.32737 0.112889,-0.42897 0.06491,-0.0649 0.1524,-0.1016 0.251178,-0.1016 0.09878,0 0.189089,0.0367 0.254,0.1016 0.1016,0.1016 0.110067,0.27375 0.110067,0.42897 z"
         style="font-size:2.82222223px;text-align:center;text-anchor:middle;stroke-width:0.26458332px"
         id="path990"
         inkscape:connector-curvature="0" />
      <path
         d="m 14.625318,262.4761 -0.138289,-0.13264 c -0.104422,0.11571 -0.186267,0.15804 -0.318911,0.15804 -0.135467,0 -0.248356,-0.0536 -0.321733,-0.15804 -0.06491,-0.0903 -0.09031,-0.19756 -0.09031,-0.37254 0,-0.17497 0.0254,-0.28222 0.09031,-0.37253 0.07338,-0.10442 0.186266,-0.15804 0.321733,-0.15804 0.132644,0 0.214489,0.0395 0.318911,0.15522 l 0.138289,-0.12982 c -0.143933,-0.15523 -0.265289,-0.20603 -0.4572,-0.20603 -0.349956,0 -0.615244,0.23707 -0.615244,0.7112 0,0.47414 0.265288,0.7112 0.615244,0.7112 0.191911,0 0.313267,-0.0508 0.4572,-0.20602 z"
         style="font-size:2.82222223px;text-align:center;text-anchor:middle;stroke-width:0.26458332px"
         id="path992"
         inkscape:connector-curvature="0" />
      <path
         d="m 15.546024,262.66519 v -0.17498 H 15.43878 c -0.129822,0 -0.189089,-0.0762 -0.189089,-0.2032 v -0.84666 h 0.296333 v -0.15523 h -0.296333 v -0.43462 h -0.2032 v 0.43462 h -0.174978 v 0.15523 h 0.174978 v 0.85231 c 0,0.20602 0.118533,0.37253 0.3556,0.37253 z"
         style="font-size:2.82222223px;text-align:center;text-anchor:middle;stroke-width:0.26458332px"
         id="path994"
         inkscape:connector-curvature="0" />
    </g>
    <g
       aria-label="Sine"
       style="font-style:normal;font-variant:normal;font-weight:normal;font-stretch:normal;font-size:2.82222223px;line-height:6.61458302px;font-family:DINPro;-inkscape-font-specification:DINPro;font-variant-ligatures:normal;font-variant-caps:normal;font-variant-numeric:normal;font-feature-settings:normal;text-align:center;letter-spacing:0px;word-spacing:0px;writing-mode:lr-tb;text-anchor:middle;fill:#000000;fill-opacity:1;stroke:none;stroke-width:0.26458332px;stroke-linecap:butt;stroke-linejoin:miter;stroke-opacity:1"
       id="text954"
       transform="translate(0.48865137,-10.054167)">
      <g
         aria-label="Lo"
         style="font-style:normal;font-variant:normal;font-weight:normal;font-stretch:normal;font-size:1.76388884px;line-height:1.25;font-family:sans-serif;-inkscape-font-specification:'sans-serif, Normal';font-variant-ligatures:normal;font-variant-caps:normal;font-variant-numeric:normal;font-feature-settings:normal;text-align:center;letter-spacing:0px;word-spacing:0px;writing-mode:lr-tb;text-anchor:middle;fill:#000000;fill-opacity:1;stroke:none;stroke-width:0.07000434px"
         id="text4025">
        <path
           d="m 2.9217235,282.86011 h 0.2087727 v 1.36736 h 0.7513753 v 0.1757 h -0.960148 z"
           style="font-style:normal;font-variant:normal;font-weight:normal;font-stretch:normal;font-size:2.11666656px;font-family:sans-serif;-inkscape-font-specification:'sans-serif, Normal';font-variant-ligatures:normal;font-variant-caps:normal;font-variant-numeric:normal;font-feature-settings:normal;text-align:center;writing-mode:lr-tb;text-anchor:middle;stroke-width:0.07000434px"
           id="path4035" />
        <path
           d="m 4.5030222,283.37894 q -0.1529623,0 -0.2418457,0.11989 -0.088884,0.11886 -0.088884,0.3266 0,0.20773 0.08785,0.32762 0.088883,0.11886 0.2428793,0.11886 0.1519287,0 0.2408121,-0.11989 0.088884,-0.11989 0.088884,-0.32659 0,-0.20568 -0.088884,-0.32557 -0.088883,-0.12092 -0.2408121,-0.12092 z m 0,-0.16123 q 0.2480468,0 0.3896402,0.16123 0.1415935,0.16123 0.1415935,0.44649 0,0.28422 -0.1415935,0.44648 -0.1415934,0.16123 -0.3896402,0.16123 -0.2490804,0 -0.3906738,-0.16123 -0.1405599,-0.16226 -0.1405599,-0.44648 0,-0.28526 0.1405599,-0.44649 0.1415934,-0.16123 0.3906738,-0.16123 z"
           style="font-style:normal;font-variant:normal;font-weight:normal;font-stretch:normal;font-size:2.11666656px;font-family:sans-serif;-inkscape-font-specification:'sans-serif, Normal';font-variant-ligatures:normal;font-variant-caps:normal;font-variant-numeric:normal;font-feature-settings:normal;text-align:center;writing-mode:lr-tb;text-anchor:middle;stroke-width:0.07000434px"
           id="path4037" />
      </g>
      <g
         aria-label="Hi"
         style="font-style:normal;font-variant:normal;font-weight:normal;font-stretch:normal;font-size:1.76388884px;line-height:1.25;font-family:sans-serif;-inkscape-font-specification:'sans-serif, Normal';font-variant-ligatures:normal;font-variant-caps:normal;font-variant-numeric:normal;font-feature-settings:normal;text-align:center;letter-spacing:0px;word-spacing:0px;writing-mode:lr-tb;text-anchor:middle;fill:#000000;fill-opacity:1;stroke:none;stroke-width:0.07000434px"
         id="text4029">
        <path
           d="m 17.971645,282.85999 h 0.208773 v 0.63252 h 0.75861 v -0.63252 H 19.1478 v 1.54306 h -0.208772 v -0.73484 h -0.75861 v 0.73484 h -0.208773 z"
           style="font-style:normal;font-variant:normal;font-weight:normal;font-stretch:normal;font-size:2.11666656px;font-family:sans-serif;-inkscape-font-specification:'sans-serif, Normal';font-variant-ligatures:normal;font-variant-caps:normal;font-variant-numeric:normal;font-feature-settings:normal;text-align:center;writing-mode:lr-tb;text-anchor:middle;stroke-width:0.07000434px"
           id="path4040" />
        <path
           d="m 19.555011,283.24549 h 0.190169 v 1.15756 h -0.190169 z m 0,-0.45061 h 0.190169 v 0.24081 h -0.190169 z"
           style="font-style:normal;font-variant:normal;font-weight:normal;font-stretch:normal;font-size:2.11666656px;font-family:sans-serif;-inkscape-font-specification:'sans-serif, Normal';font-variant-ligatures:normal;font-variant-caps:normal;font-variant-numeric:normal;font-feature-settings:normal;text-align:center;writing-mode:lr-tb;text-anchor:middle;stroke-width:0.07000434px"
           id="path4042" />
      </g>
      <g
         aria-label="Thru"
         style="font-style:normal;font-variant:normal;font-weight:normal;font-stretch:normal;font-size:2.11666656px;line-height:1.25;font-family:sans-serif;-inkscape-font-specification:'sans-serif, Normal';font-variant-ligatures:normal;font-variant-caps:normal;font-variant-numeric:normal;font-feature-settings:normal;text-align:center;letter-spacing:0px;word-spacing:0px;writing-mode:lr-tb;text-anchor:middle;fill:#000000;fill-opacity:1;stroke:none;stroke-width:0.07000434px"
         id="text4033">
        <path
           d="m 9.0816525,282.85999 h 1.3053465 v 0.1757 h -0.54777 v 1.36736 H 9.6294227 v -1.36736 H 9.0816525 Z"
           style="stroke-width:0.07000434px"
           id="path4045" />
        <path
           d="m 11.543518,283.70438 v 0.69867 h -0.19017 v -0.69247 q 0,-0.16433 -0.06408,-0.24598 -0.06408,-0.0817 -0.192237,-0.0817 -0.153996,0 -0.242879,0.0982 -0.08888,0.0982 -0.08888,0.26768 v 0.65423 h -0.191203 v -1.60817 h 0.191203 v 0.63045 q 0.06821,-0.10439 0.160196,-0.15607 0.09302,-0.0517 0.213941,-0.0517 0.199471,0 0.30179,0.12402 0.10232,0.12299 0.10232,0.36277 z"
           style="stroke-width:0.07000434px"
           id="path4047" />
        <path
           d="m 12.59565,283.42326 q -0.03204,-0.0186 -0.07028,-0.0269 -0.03721,-0.009 -0.08268,-0.009 -0.16123,0 -0.248046,0.10542 -0.08578,0.10438 -0.08578,0.30075 v 0.60979 h -0.191203 v -1.15756 h 0.191203 v 0.17984 q 0.05994,-0.10542 0.156063,-0.15607 0.09612,-0.0517 0.233577,-0.0517 0.01964,0 0.04341,0.003 0.02377,0.002 0.05271,0.007 z"
           style="stroke-width:0.07000434px"
           id="path4049" />
        <path
           d="m 12.777551,283.94623 v -0.70074 h 0.190169 v 0.6935 q 0,0.16433 0.06408,0.24701 0.06408,0.0817 0.192236,0.0817 0.153996,0 0.242879,-0.0982 0.08992,-0.0982 0.08992,-0.26769 v -0.65629 H 13.747 v 1.15756 h -0.190169 v -0.17777 q -0.06925,0.10542 -0.16123,0.1571 -0.09095,0.0506 -0.211874,0.0506 -0.199471,0 -0.302824,-0.12403 -0.103352,-0.12402 -0.103352,-0.36276 z m 0.478523,-0.72864 z"
           style="stroke-width:0.07000434px"
           id="path4051" />
      </g>
    </g>
    <text
       xml:space="preserve"
       style="font-style:normal;font-weight:normal;font-size:10.58333302px;line-height:1.25;font-family:sans-serif;letter-spacing:0px;word-spacing:0px;fill:#000000;fill-opacity:1;stroke:none;stroke-width:0.26458332"
       x="6.6251712"
       y="206.55183"
       id="text3879"><tspan
         sodipodi:role="line"
         id="tspan3877"
         x="6.6251712"
         y="215.9156"
         style="stroke-width:0.26458332" /></text>
    <flowRoot
       xml:space="preserve"
       id="flowRoot3934"
       style="fill:black;fill-opacity:1;stroke:none;font-family:sans-serif;font-style:normal;font-weight:normal;font-size:6.66666667px;line-height:1.25;letter-spacing:0px;word-spacing:0px;-inkscape-font-specification:'sans-serif, Normal';font-stretch:normal;font-variant:normal;text-anchor:middle;text-align:center;writing-mode:lr;font-variant-ligatures:normal;font-variant-caps:normal;font-variant-numeric:normal;font-feature-settings:normal"><flowRegion
         id="flowRegion3936"><rect
           id="rect3938"
           width="49.497475"
           height="21.844549"
           x="15.531096"
           y="12.051935" /></flowRegion><flowPara
         id="flowPara3940"></flowPara></flowRoot>    <flowRoot
       xml:space="preserve"
       id="flowRoot3942"
       style="font-style:normal;font-variant:normal;font-weight:normal;font-stretch:normal;font-size:6.66666651px;line-height:1.25;font-family:sans-serif;-inkscape-font-specification:'sans-serif, Normal';font-variant-ligatures:normal;font-variant-caps:normal;font-variant-numeric:normal;font-feature-settings:normal;text-align:center;letter-spacing:0px;word-spacing:0px;writing-mode:lr-tb;text-anchor:middle;fill:#000000;fill-opacity:1;stroke:none"
       transform="matrix(0.26458333,0,0,0.26458333,0,196.45832)"><flowRegion
         id="flowRegion3944"><rect
           id="rect3946"
           width="65.912453"
           height="39.648487"
           x="8.9651041"
           y="8.5164013" /></flowRegion><flowPara
         id="flowPara3948" /></flowRoot>    <g
       aria-label="NG
Harmonizer"
       style="font-style:normal;font-variant:normal;font-weight:normal;font-stretch:normal;font-size:1.76388884px;line-height:1.25;font-family:sans-serif;-inkscape-font-specification:'sans-serif, Normal';font-variant-ligatures:normal;font-variant-caps:normal;font-variant-numeric:normal;font-feature-settings:normal;text-align:center;letter-spacing:0px;word-spacing:0px;writing-mode:lr-tb;text-anchor:middle;fill:#000000;fill-opacity:1;stroke:none;stroke-width:0.26458332"
       id="text3952">
      <path
         d="m 9.3939143,202.48553 h 0.468533 l 1.1403267,2.15147 v -2.15147 h 0.337619 v 2.57177 H 10.87186 l -1.1403264,-2.15147 v 2.15147 H 9.3939143 Z"
         style="font-style:normal;font-variant:normal;font-weight:normal;font-stretch:normal;font-size:3.52777767px;font-family:sans-serif;-inkscape-font-specification:'sans-serif, Normal';font-variant-ligatures:normal;font-variant-caps:normal;font-variant-numeric:normal;font-feature-settings:normal;text-align:center;writing-mode:lr-tb;text-anchor:middle;stroke-width:0.26458332"
         id="path3956" />
      <path
         d="m 13.786411,204.69039 v -0.69074 H 13.21797 v -0.28594 h 0.91295 v 1.10415 q -0.201538,0.14297 -0.444417,0.21704 -0.242879,0.0724 -0.518487,0.0724 -0.602892,0 -0.943956,-0.3514 -0.339342,-0.35312 -0.339342,-0.98185 0,-0.63045 0.339342,-0.98185 0.341064,-0.35313 0.943956,-0.35313 0.251492,0 0.477146,0.062 0.227376,0.062 0.418579,0.18259 v 0.37034 q -0.192925,-0.16364 -0.409966,-0.24632 -0.217041,-0.0827 -0.456476,-0.0827 -0.471978,0 -0.709689,0.26355 -0.235989,0.26355 -0.235989,0.78548 0,0.52021 0.235989,0.78376 0.237711,0.26355 0.709689,0.26355 0.184313,0 0.329007,-0.031 0.144694,-0.0327 0.260105,-0.0999 z"
         style="font-style:normal;font-variant:normal;font-weight:normal;font-stretch:normal;font-size:3.52777767px;font-family:sans-serif;-inkscape-font-specification:'sans-serif, Normal';font-variant-ligatures:normal;font-variant-caps:normal;font-variant-numeric:normal;font-feature-settings:normal;text-align:center;writing-mode:lr-tb;text-anchor:middle;stroke-width:0.26458332"
         id="path3958" />
      <path
         d="m 1.8319299,206.89526 h 0.3479547 v 1.05419 h 1.26435 v -1.05419 h 0.3479546 v 2.57176 H 3.4442346 v -1.22473 h -1.26435 v 1.22473 H 1.8319299 Z"
         style="font-style:normal;font-variant:normal;font-weight:normal;font-stretch:normal;font-size:3.52777767px;font-family:sans-serif;-inkscape-font-specification:'sans-serif, Normal';font-variant-ligatures:normal;font-variant-caps:normal;font-variant-numeric:normal;font-feature-settings:normal;text-align:center;writing-mode:lr-tb;text-anchor:middle;stroke-width:0.26458332"
         id="path3960" />
      <path
         d="m 5.3476499,208.49722 q -0.3841282,0 -0.5322673,0.0879 -0.1481391,0.0879 -0.1481391,0.29973 0,0.16881 0.1102431,0.26872 0.1119656,0.0982 0.3031684,0.0982 0.2635498,0 0.4220242,-0.18603 0.1601969,-0.18776 0.1601969,-0.49782 v -0.0706 z m 0.632175,-0.13091 v 1.10071 H 5.6628761 v -0.29283 q -0.1085205,0.1757 -0.27044,0.2601 -0.1619195,0.0827 -0.396186,0.0827 -0.2962782,0 -0.471978,-0.16536 -0.1739773,-0.16709 -0.1739773,-0.44614 0,-0.32556 0.217041,-0.49093 0.2187635,-0.16536 0.651123,-0.16536 h 0.4444173 v -0.031 q 0,-0.21876 -0.144694,-0.33762 -0.1429715,-0.12058 -0.4030762,-0.12058 -0.1653645,0 -0.3221164,0.0396 -0.1567518,0.0396 -0.3014458,0.11886 v -0.29283 q 0.1739773,-0.0672 0.3376193,-0.0999 0.163642,-0.0344 0.3186713,-0.0344 0.4185791,0 0.6252849,0.21704 0.2067057,0.21704 0.2067057,0.65801 z"
         style="font-style:normal;font-variant:normal;font-weight:normal;font-stretch:normal;font-size:3.52777767px;font-family:sans-serif;-inkscape-font-specification:'sans-serif, Normal';font-variant-ligatures:normal;font-variant-caps:normal;font-variant-numeric:normal;font-feature-settings:normal;text-align:center;writing-mode:lr-tb;text-anchor:middle;stroke-width:0.26458332"
         id="path3962" />
      <path
         d="m 7.7523262,207.83404 q -0.053399,-0.031 -0.1171333,-0.0448 -0.062012,-0.0155 -0.1378038,-0.0155 -0.2687174,0 -0.4134114,0.1757 -0.1429715,0.17398 -0.1429715,0.50127 v 1.0163 H 6.6223349 v -1.92925 h 0.3186713 v 0.29972 q 0.099908,-0.1757 0.2601047,-0.26011 0.1601969,-0.0861 0.3892958,-0.0861 0.032728,0 0.072347,0.005 0.039619,0.003 0.08785,0.0121 z"
         style="font-style:normal;font-variant:normal;font-weight:normal;font-stretch:normal;font-size:3.52777767px;font-family:sans-serif;-inkscape-font-specification:'sans-serif, Normal';font-variant-ligatures:normal;font-variant-caps:normal;font-variant-numeric:normal;font-feature-settings:normal;text-align:center;writing-mode:lr-tb;text-anchor:middle;stroke-width:0.26458332"
         id="path3964" />
      <path
         d="m 9.5282733,207.90811 q 0.1188558,-0.21359 0.2842204,-0.31522 0.1653646,-0.10163 0.3892953,-0.10163 0.301446,0 0.465088,0.21187 0.163642,0.21015 0.163642,0.59945 v 1.16444 h -0.318671 v -1.15411 q 0,-0.27733 -0.09819,-0.41169 -0.09818,-0.13436 -0.299723,-0.13436 -0.2463248,0 -0.3892963,0.16365 -0.1429714,0.16364 -0.1429714,0.44614 v 1.09037 H 9.263001 v -1.15411 q 0,-0.27905 -0.098185,-0.41169 -0.098185,-0.13436 -0.3031684,-0.13436 -0.2428792,0 -0.3858506,0.16537 -0.1429715,0.16364 -0.1429715,0.44442 v 1.09037 H 8.0141539 v -1.92925 h 0.3186713 v 0.29972 q 0.1085205,-0.17742 0.2601047,-0.26183 0.1515842,-0.0844 0.3600125,-0.0844 0.2101508,0 0.3565673,0.10679 0.1481392,0.1068 0.2187636,0.31006 z"
         style="font-style:normal;font-variant:normal;font-weight:normal;font-stretch:normal;font-size:3.52777767px;font-family:sans-serif;-inkscape-font-specification:'sans-serif, Normal';font-variant-ligatures:normal;font-variant-caps:normal;font-variant-numeric:normal;font-feature-settings:normal;text-align:center;writing-mode:lr-tb;text-anchor:middle;stroke-width:0.26458332"
         id="path3966" />
      <path
         d="m 12.212002,207.75997 q -0.254937,0 -0.403076,0.19982 -0.148139,0.19809 -0.148139,0.54432 0,0.34624 0.146416,0.54605 0.14814,0.1981 0.404799,0.1981 0.253215,0 0.401354,-0.19982 0.148139,-0.19982 0.148139,-0.54433 0,-0.34278 -0.148139,-0.5426 -0.148139,-0.20154 -0.401354,-0.20154 z m 0,-0.26871 q 0.413412,0 0.649401,0.26871 0.235989,0.26872 0.235989,0.74414 0,0.47371 -0.235989,0.74415 -0.235989,0.26871 -0.649401,0.26871 -0.415134,0 -0.651123,-0.26871 -0.234266,-0.27044 -0.234266,-0.74415 0,-0.47542 0.234266,-0.74414 0.235989,-0.26871 0.651123,-0.26871 z"
         style="font-style:normal;font-variant:normal;font-weight:normal;font-stretch:normal;font-size:3.52777767px;font-family:sans-serif;-inkscape-font-specification:'sans-serif, Normal';font-variant-ligatures:normal;font-variant-caps:normal;font-variant-numeric:normal;font-feature-settings:normal;text-align:center;writing-mode:lr-tb;text-anchor:middle;stroke-width:0.26458332"
         id="path3968" />
      <path
         d="m 15.224738,208.30258 v 1.16444 h -0.316949 v -1.15411 q 0,-0.27388 -0.106798,-0.40996 -0.106798,-0.13609 -0.320394,-0.13609 -0.256659,0 -0.404798,0.16365 -0.148139,0.16364 -0.148139,0.44614 v 1.09037 h -0.318672 v -1.92925 h 0.318672 v 0.29972 q 0.113688,-0.17398 0.266994,-0.26011 0.15503,-0.0861 0.356568,-0.0861 0.332452,0 0.502984,0.2067 0.170532,0.20499 0.170532,0.60462 z"
         style="font-style:normal;font-variant:normal;font-weight:normal;font-stretch:normal;font-size:3.52777767px;font-family:sans-serif;-inkscape-font-specification:'sans-serif, Normal';font-variant-ligatures:normal;font-variant-caps:normal;font-variant-numeric:normal;font-feature-settings:normal;text-align:center;writing-mode:lr-tb;text-anchor:middle;stroke-width:0.26458332"
         id="path3970" />
      <path
         d="m 15.860358,207.53777 h 0.316949 v 1.92925 h -0.316949 z m 0,-0.75104 h 0.316949 v 0.40136 h -0.316949 z"
         style="font-style:normal;font-variant:normal;font-weight:normal;font-stretch:normal;font-size:3.52777767px;font-family:sans-serif;-inkscape-font-specification:'sans-serif, Normal';font-variant-ligatures:normal;font-variant-caps:normal;font-variant-numeric:normal;font-feature-settings:normal;text-align:center;writing-mode:lr-tb;text-anchor:middle;stroke-width:0.26458332"
         id="path3972" />
      <path
         d="m 16.700961,207.53777 h 1.505507 v 0.28938 l -1.192003,1.38665 h 1.192003 v 0.25322 h -1.54857 v -0.28939 l 1.192003,-1.38665 h -1.14894 z"
         style="font-style:normal;font-variant:normal;font-weight:normal;font-stretch:normal;font-size:3.52777767px;font-family:sans-serif;-inkscape-font-specification:'sans-serif, Normal';font-variant-ligatures:normal;font-variant-caps:normal;font-variant-numeric:normal;font-feature-settings:normal;text-align:center;writing-mode:lr-tb;text-anchor:middle;stroke-width:0.26458332"
         id="path3974" />
      <path
         d="m 20.342427,208.42315 v 0.15503 h -1.457275 q 0.02067,0.32729 0.19637,0.49954 0.177423,0.17054 0.492649,0.17054 0.18259,0 0.353122,-0.0448 0.172255,-0.0448 0.341065,-0.13436 v 0.29972 q -0.170533,0.0724 -0.349678,0.11025 -0.179145,0.0379 -0.363457,0.0379 -0.461643,0 -0.732083,-0.26871 -0.268717,-0.26872 -0.268717,-0.72692 0,-0.4737 0.254937,-0.75103 0.256659,-0.27905 0.690741,-0.27905 0.389296,0 0.61495,0.25149 0.227376,0.24977 0.227376,0.6804 z m -0.316949,-0.093 q -0.0034,-0.26011 -0.146416,-0.41514 -0.141249,-0.15503 -0.375516,-0.15503 -0.265272,0 -0.425469,0.14987 -0.158474,0.14986 -0.18259,0.42202 z"
         style="font-style:normal;font-variant:normal;font-weight:normal;font-stretch:normal;font-size:3.52777767px;font-family:sans-serif;-inkscape-font-specification:'sans-serif, Normal';font-variant-ligatures:normal;font-variant-caps:normal;font-variant-numeric:normal;font-feature-settings:normal;text-align:center;writing-mode:lr-tb;text-anchor:middle;stroke-width:0.26458332"
         id="path3976" />
      <path
         d="m 21.98057,207.83404 q -0.0534,-0.031 -0.117133,-0.0448 -0.06201,-0.0155 -0.137804,-0.0155 -0.268718,0 -0.413412,0.1757 -0.142971,0.17398 -0.142971,0.50127 v 1.0163 h -0.318671 v -1.92925 h 0.318671 v 0.29972 q 0.09991,-0.1757 0.260105,-0.26011 0.160197,-0.0861 0.389296,-0.0861 0.03273,0 0.07235,0.005 0.03962,0.003 0.08785,0.0121 z"
         style="font-style:normal;font-variant:normal;font-weight:normal;font-stretch:normal;font-size:3.52777767px;font-family:sans-serif;-inkscape-font-specification:'sans-serif, Normal';font-variant-ligatures:normal;font-variant-caps:normal;font-variant-numeric:normal;font-feature-settings:normal;text-align:center;writing-mode:lr-tb;text-anchor:middle;stroke-width:0.26458332"
         id="path3978" />
    </g>
  </g>
</svg>
