<?xml version="1.0" encoding="UTF-8" standalone="no"?>
<!-- Created with Inkscape (http://www.inkscape.org/) -->

<svg
   xmlns:dc="http://purl.org/dc/elements/1.1/"
   xmlns:cc="http://creativecommons.org/ns#"
   xmlns:rdf="http://www.w3.org/1999/02/22-rdf-syntax-ns#"
   xmlns:svg="http://www.w3.org/2000/svg"
   xmlns="http://www.w3.org/2000/svg"
   xmlns:sodipodi="http://sodipodi.sourceforge.net/DTD/sodipodi-0.dtd"
   xmlns:inkscape="http://www.inkscape.org/namespaces/inkscape"
   width="90"
   height="380"
   viewBox="0 0 23.812501 100.54167"
   version="1.1"
   id="svg8"
   inkscape:version="0.92.3 (2405546, 2018-03-11)"
   sodipodi:docname="rpeggi8r.svg">
  <defs
     id="defs2" />
  <sodipodi:namedview
     id="base"
     pagecolor="#ffffff"
     bordercolor="#666666"
     borderopacity="1.0"
     inkscape:pageopacity="0.0"
     inkscape:pageshadow="2"
     inkscape:zoom="1.4"
     inkscape:cx="106.33776"
     inkscape:cy="170.63765"
     inkscape:document-units="mm"
     inkscape:current-layer="layer1"
     showgrid="false"
     units="px"
     inkscape:snap-bbox="true"
     inkscape:snap-page="true"
     inkscape:bbox-nodes="true"
     inkscape:snap-bbox-edge-midpoints="true"
     inkscape:window-width="1870"
     inkscape:window-height="1051"
     inkscape:window-x="50"
     inkscape:window-y="0"
     inkscape:window-maximized="1" />
  <metadata
     id="metadata5">
    <rdf:RDF>
      <cc:Work
         rdf:about="">
        <dc:format>image/svg+xml</dc:format>
        <dc:type
           rdf:resource="http://purl.org/dc/dcmitype/StillImage" />
        <dc:title />
      </cc:Work>
    </rdf:RDF>
  </metadata>
  <g
     inkscape:label="Layer 1"
     inkscape:groupmode="layer"
     id="layer1"
     transform="translate(0,-196.45832)">
    <path
       style="opacity:1;vector-effect:none;fill:#f0f0f0;fill-opacity:1;fill-rule:evenodd;stroke:none;stroke-width:0.48607069;stroke-linecap:butt;stroke-linejoin:round;stroke-miterlimit:4;stroke-dasharray:none;stroke-dashoffset:0;stroke-opacity:1;paint-order:normal"
       d="M 0,196.45831 H 23.8125 V 296.99999 H 0 Z"
       id="rect817"
       inkscape:connector-curvature="0" />
    <g
       aria-label="Pitch"
       style="font-style:normal;font-variant:normal;font-weight:normal;font-stretch:normal;font-size:2.82222223px;line-height:6.61458302px;font-family:DINPro;-inkscape-font-specification:DINPro;font-variant-ligatures:normal;font-variant-caps:normal;font-variant-numeric:normal;font-feature-settings:normal;text-align:center;letter-spacing:0px;word-spacing:0px;writing-mode:lr-tb;text-anchor:middle;fill:#000000;fill-opacity:1;stroke:none;stroke-width:0.26458332px;stroke-linecap:butt;stroke-linejoin:miter;stroke-opacity:1"
       id="text946"
       transform="translate(0,-2.1166665)">
      <path
         d="m 10.343313,234.08358 c 0,-0.36124 -0.254,-0.58984 -0.6208893,-0.58984 H 8.9745348 v 2.00942 h 0.2144889 v -0.82691 h 0.5334 c 0.3668893,0 0.6208893,-0.23142 0.6208893,-0.59267 z m -0.214489,0 c 0,0.26529 -0.174978,0.40076 -0.4261558,0.40076 H 9.1890237 v -0.79869 h 0.5136445 c 0.2511778,0 0.4261558,0.13264 0.4261558,0.39793 z"
         style="font-size:2.82222223px;text-align:center;text-anchor:middle;stroke-width:0.26458332px"
         id="path973"
         inkscape:connector-curvature="0" />
      <path
         d="m 10.921471,235.50316 v -1.38853 h -0.2032 v 1.38853 z m 0.01411,-1.78365 v -0.2286 h -0.2286 v 0.2286 z"
         style="font-size:2.82222223px;text-align:center;text-anchor:middle;stroke-width:0.26458332px"
         id="path975"
         inkscape:connector-curvature="0" />
      <path
         d="m 11.968251,235.50316 v -0.17498 h -0.107244 c -0.129822,0 -0.189089,-0.0762 -0.189089,-0.2032 v -0.84667 h 0.296333 v -0.15522 h -0.296333 v -0.43462 h -0.2032 v 0.43462 H 11.29374 v 0.15522 h 0.174978 v 0.85232 c 0,0.20602 0.118533,0.37253 0.3556,0.37253 z"
         style="font-size:2.82222223px;text-align:center;text-anchor:middle;stroke-width:0.26458332px"
         id="path977"
         inkscape:connector-curvature="0" />
      <path
         d="m 13.346113,235.31407 -0.138289,-0.13264 c -0.104422,0.11571 -0.186267,0.15804 -0.318911,0.15804 -0.135467,0 -0.248356,-0.0536 -0.321733,-0.15804 -0.06491,-0.0903 -0.09031,-0.19756 -0.09031,-0.37254 0,-0.17498 0.0254,-0.28222 0.09031,-0.37253 0.07338,-0.10442 0.186266,-0.15805 0.321733,-0.15805 0.132644,0 0.214489,0.0395 0.318911,0.15523 l 0.138289,-0.12983 c -0.143933,-0.15522 -0.265289,-0.20602 -0.4572,-0.20602 -0.349956,0 -0.615244,0.23707 -0.615244,0.7112 0,0.47414 0.265288,0.7112 0.615244,0.7112 0.191911,0 0.313267,-0.0508 0.4572,-0.20602 z"
         style="font-size:2.82222223px;text-align:center;text-anchor:middle;stroke-width:0.26458332px"
         id="path979"
         inkscape:connector-curvature="0" />
      <path
         d="m 14.825619,235.50316 v -0.89182 c 0,-0.31327 -0.186267,-0.51365 -0.499534,-0.51365 -0.155222,0 -0.287866,0.0536 -0.389466,0.16934 v -0.77329 h -0.2032 v 2.00942 h 0.2032 v -0.85796 c 0,-0.23989 0.138289,-0.36689 0.347133,-0.36689 0.208844,0 0.338667,0.12418 0.338667,0.36689 v 0.85796 z"
         style="font-size:2.82222223px;text-align:center;text-anchor:middle;stroke-width:0.26458332px"
         id="path981"
         inkscape:connector-curvature="0" />
    </g>
    <g
       aria-label="1V/oct"
       style="font-style:normal;font-variant:normal;font-weight:normal;font-stretch:normal;font-size:2.82222223px;line-height:6.61458302px;font-family:DINPro;-inkscape-font-specification:DINPro;font-variant-ligatures:normal;font-variant-caps:normal;font-variant-numeric:normal;font-feature-settings:normal;text-align:center;letter-spacing:0px;word-spacing:0px;writing-mode:lr-tb;text-anchor:middle;fill:#000000;fill-opacity:1;stroke:none;stroke-width:0.26458332px;stroke-linecap:butt;stroke-linejoin:miter;stroke-opacity:1"
       id="text950"
       transform="translate(0,-6.0862931)">
      <path
         d="m 8.7942542,262.66519 v -2.00942 h -0.2032 l -0.3753555,0.32455 v 0.23143 l 0.3753555,-0.3302 v 1.78364 z"
         style="font-size:2.82222223px;text-align:center;text-anchor:middle;stroke-width:0.26458332px"
         id="path984"
         inkscape:connector-curvature="0" />
      <path
         d="m 10.853021,260.65577 h -0.225778 l -0.522111,1.6256 -0.5221108,-1.6256 H 9.3572434 l 0.6603996,2.00942 h 0.174978 z"
         style="font-size:2.82222223px;text-align:center;text-anchor:middle;stroke-width:0.26458332px"
         id="path986"
         inkscape:connector-curvature="0" />
      <path
         d="m 11.88278,260.44692 h -0.200378 l -0.804333,2.42712 h 0.200377 z"
         style="font-size:2.82222223px;text-align:center;text-anchor:middle;stroke-width:0.26458332px"
         id="path988"
         inkscape:connector-curvature="0" />
      <path
         d="m 13.196436,261.97092 c 0,-0.21448 -0.02822,-0.40922 -0.169334,-0.55315 -0.09596,-0.096 -0.2286,-0.15805 -0.397933,-0.15805 -0.169333,0 -0.301978,0.0621 -0.397933,0.15805 -0.141111,0.14393 -0.169334,0.33867 -0.169334,0.55315 0,0.21449 0.02822,0.40923 0.169334,0.55316 0.09595,0.096 0.2286,0.15804 0.397933,0.15804 0.169333,0 0.301978,-0.0621 0.397933,-0.15804 0.141111,-0.14393 0.169334,-0.33867 0.169334,-0.55316 z m -0.2032,0 c 0,0.15523 -0.0085,0.32738 -0.110067,0.42898 -0.06491,0.0649 -0.155222,0.1016 -0.254,0.1016 -0.09878,0 -0.186267,-0.0367 -0.251178,-0.1016 -0.1016,-0.1016 -0.112889,-0.27375 -0.112889,-0.42898 0,-0.15522 0.01129,-0.32737 0.112889,-0.42897 0.06491,-0.0649 0.1524,-0.1016 0.251178,-0.1016 0.09878,0 0.189089,0.0367 0.254,0.1016 0.1016,0.1016 0.110067,0.27375 0.110067,0.42897 z"
         style="font-size:2.82222223px;text-align:center;text-anchor:middle;stroke-width:0.26458332px"
         id="path990"
         inkscape:connector-curvature="0" />
      <path
         d="m 14.625318,262.4761 -0.138289,-0.13264 c -0.104422,0.11571 -0.186267,0.15804 -0.318911,0.15804 -0.135467,0 -0.248356,-0.0536 -0.321733,-0.15804 -0.06491,-0.0903 -0.09031,-0.19756 -0.09031,-0.37254 0,-0.17497 0.0254,-0.28222 0.09031,-0.37253 0.07338,-0.10442 0.186266,-0.15804 0.321733,-0.15804 0.132644,0 0.214489,0.0395 0.318911,0.15522 l 0.138289,-0.12982 c -0.143933,-0.15523 -0.265289,-0.20603 -0.4572,-0.20603 -0.349956,0 -0.615244,0.23707 -0.615244,0.7112 0,0.47414 0.265288,0.7112 0.615244,0.7112 0.191911,0 0.313267,-0.0508 0.4572,-0.20602 z"
         style="font-size:2.82222223px;text-align:center;text-anchor:middle;stroke-width:0.26458332px"
         id="path992"
         inkscape:connector-curvature="0" />
      <path
         d="m 15.546024,262.66519 v -0.17498 H 15.43878 c -0.129822,0 -0.189089,-0.0762 -0.189089,-0.2032 v -0.84666 h 0.296333 v -0.15523 h -0.296333 v -0.43462 h -0.2032 v 0.43462 h -0.174978 v 0.15523 h 0.174978 v 0.85231 c 0,0.20602 0.118533,0.37253 0.3556,0.37253 z"
         style="font-size:2.82222223px;text-align:center;text-anchor:middle;stroke-width:0.26458332px"
         id="path994"
         inkscape:connector-curvature="0" />
    </g>
    <g
       aria-label="Sine"
       style="font-style:normal;font-variant:normal;font-weight:normal;font-stretch:normal;font-size:2.82222223px;line-height:6.61458302px;font-family:DINPro;-inkscape-font-specification:DINPro;font-variant-ligatures:normal;font-variant-caps:normal;font-variant-numeric:normal;font-feature-settings:normal;text-align:center;letter-spacing:0px;word-spacing:0px;writing-mode:lr-tb;text-anchor:middle;fill:#000000;fill-opacity:1;stroke:none;stroke-width:0.26458332px;stroke-linecap:butt;stroke-linejoin:miter;stroke-opacity:1"
       id="text954"
       transform="translate(0,-10.054167)">
      <path
         d="m 10.714958,289.26526 c 0,-0.16651 -0.05927,-0.3048 -0.169334,-0.39793 -0.08467,-0.0734 -0.1778,-0.11289 -0.366889,-0.14111 l -0.220133,-0.0339 c -0.1044223,-0.0169 -0.2088445,-0.0564 -0.2709334,-0.11006 -0.062089,-0.0536 -0.090311,-0.13265 -0.090311,-0.23143 0,-0.22295 0.1552222,-0.37253 0.4233334,-0.37253 0.211667,0 0.344311,0.0593 0.468489,0.17216 l 0.138289,-0.13829 c -0.172156,-0.15522 -0.341489,-0.22014 -0.598311,-0.22014 -0.3979337,0 -0.643467,0.22578 -0.643467,0.56727 0,0.16087 0.0508,0.28505 0.1524,0.37536 0.087489,0.0762 0.2116666,0.127 0.3697111,0.1524 l 0.2342439,0.0367 c 0.146756,0.0226 0.197556,0.0395 0.262467,0.0959 0.06491,0.0565 0.09596,0.14676 0.09596,0.25118 0,0.23424 -0.180623,0.37253 -0.474134,0.37253 -0.2257774,0 -0.3809996,-0.0536 -0.5475107,-0.22013 l -0.1467556,0.14675 c 0.1890889,0.18909 0.3866445,0.26529 0.6886223,0.26529 0.417689,0 0.694267,-0.21731 0.694267,-0.57009 z"
         style="font-size:2.82222223px;text-align:center;text-anchor:middle;stroke-width:0.26458332px"
         id="path997"
         inkscape:connector-curvature="0" />
      <path
         d="m 11.329893,289.81842 v -1.38853 h -0.2032 v 1.38853 z m 0.01411,-1.78364 v -0.2286 h -0.2286 v 0.2286 z"
         style="font-size:2.82222223px;text-align:center;text-anchor:middle;stroke-width:0.26458332px"
         id="path999"
         inkscape:connector-curvature="0" />
      <path
         d="m 12.935473,289.81842 v -0.889 c 0,-0.16087 -0.04515,-0.29069 -0.143933,-0.38664 -0.08467,-0.0847 -0.206022,-0.12983 -0.3556,-0.12983 -0.155222,0 -0.290689,0.0564 -0.389467,0.16934 v -0.1524 h -0.2032 v 1.38853 h 0.2032 v -0.85513 c 0,-0.24271 0.135467,-0.36971 0.344311,-0.36971 0.208845,0 0.341489,0.12417 0.341489,0.36971 v 0.85513 z"
         style="font-size:2.82222223px;text-align:center;text-anchor:middle;stroke-width:0.26458332px"
         id="path1001"
         inkscape:connector-curvature="0" />
      <path
         d="m 14.494751,289.17778 v -0.0931 c 0,-0.41204 -0.211667,-0.67169 -0.570089,-0.67169 -0.352778,0 -0.570089,0.26247 -0.570089,0.7112 0,0.49107 0.239889,0.7112 0.606778,0.7112 0.237067,0 0.366889,-0.0734 0.508,-0.21449 l -0.138289,-0.12135 c -0.110067,0.11007 -0.2032,0.15804 -0.364067,0.15804 -0.265289,0 -0.409222,-0.17497 -0.409222,-0.47977 z m -0.2032,-0.1524 h -0.733778 c 0.0056,-0.11289 0.01129,-0.15523 0.04233,-0.23143 0.05362,-0.127 0.1778,-0.20884 0.324556,-0.20884 0.146756,0 0.270933,0.0818 0.324556,0.20884 0.03104,0.0762 0.03669,0.11854 0.04233,0.23143 z"
         style="font-size:2.82222223px;text-align:center;text-anchor:middle;stroke-width:0.26458332px"
         id="path1003"
         inkscape:connector-curvature="0" />
    </g>
    <g
       aria-label="Rpeggi8r"
       style="font-style:normal;font-weight:normal;font-size:4.23333311px;line-height:1.25;font-family:sans-serif;letter-spacing:0px;word-spacing:0px;fill:#000000;fill-opacity:1;stroke:none;stroke-width:0.26458332"
       id="text3879"
       transform="translate(0.0431547,0.69952667)">
      <path
         d="m 3.9203218,203.97295 q 0.1343587,0.0455 0.2604492,0.1943 0.1281575,0.14883 0.2563151,0.40928 l 0.4237467,0.84336 H 4.4122814 L 4.0174735,204.62821 Q 3.8645113,204.31815 3.7198172,204.21686 3.5771903,204.11558 3.3291434,204.11558 H 2.8743909 v 1.30431 H 2.4568453 v -3.08612 h 0.9425781 q 0.5291666,0 0.7896158,0.22118 0.2604492,0.22118 0.2604492,0.66766 0,0.29145 -0.1364257,0.48369 -0.1343588,0.19224 -0.3927409,0.26665 z m -1.0459309,-1.29604 v 1.09554 h 0.5250325 q 0.3017903,0 0.4547526,-0.1385 0.1550293,-0.14056 0.1550293,-0.41134 0,-0.27078 -0.1550293,-0.40721 -0.1529623,-0.13849 -0.4547526,-0.13849 z"
         style="font-size:4.23333311px;stroke-width:0.26458332"
         id="path3881"
         inkscape:connector-curvature="0" />
      <path
         d="m 5.7517343,205.07263 v 1.22783 H 5.3693288 v -3.19567 h 0.3824055 v 0.3514 q 0.1198894,-0.20671 0.3017904,-0.30593 0.1839681,-0.10128 0.4382161,-0.10128 0.4216797,0 0.6841959,0.33486 0.2645834,0.33486 0.2645834,0.88057 0,0.5457 -0.2645834,0.88056 -0.2625162,0.33487 -0.6841959,0.33487 -0.254248,0 -0.4382161,-0.0992 -0.181901,-0.10129 -0.3017904,-0.30799 z m 1.2939778,-0.80822 q 0,-0.41962 -0.1736328,-0.65733 -0.1715657,-0.23978 -0.4733561,-0.23978 -0.3017903,0 -0.4754231,0.23978 -0.1715658,0.23771 -0.1715658,0.65733 0,0.41961 0.1715658,0.65939 0.1736328,0.23771 0.4754231,0.23771 0.3017904,0 0.4733561,-0.23771 0.1736328,-0.23978 0.1736328,-0.65939 z"
         style="font-size:4.23333311px;stroke-width:0.26458332"
         id="path3883"
         inkscape:connector-curvature="0" />
      <path
         d="m 10.051214,204.16725 v 0.18604 H 8.3024831 q 0.024805,0.39274 0.2356445,0.59945 0.2129069,0.20464 0.5911784,0.20464 0.2191081,0 0.4237467,-0.0537 0.2067057,-0.0537 0.4092773,-0.16123 v 0.35967 q -0.2046386,0.0868 -0.4196126,0.13229 -0.2149739,0.0455 -0.436149,0.0455 -0.5539714,0 -0.8784993,-0.32246 -0.322461,-0.32247 -0.322461,-0.8723 0,-0.56844 0.3059245,-0.90124 0.3079915,-0.33486 0.8288899,-0.33486 0.467155,0 0.7379395,0.30179 0.272852,0.29972 0.272852,0.81648 z m -0.380339,-0.11162 q -0.00413,-0.31212 -0.1756999,-0.49816 -0.1694987,-0.18603 -0.4506184,-0.18603 -0.3183268,0 -0.5105632,0.17983 -0.1901692,0.17984 -0.219108,0.50643 z"
         style="font-size:4.23333311px;stroke-width:0.26458332"
         id="path3885"
         inkscape:connector-curvature="0" />
      <path
         d="m 12.198885,204.23547 q 0,-0.41341 -0.171566,-0.64079 -0.169498,-0.22738 -0.47749,-0.22738 -0.305924,0 -0.47749,0.22738 -0.169499,0.22738 -0.169499,0.64079 0,0.41134 0.169499,0.63872 0.171566,0.22737 0.47749,0.22737 0.307992,0 0.47749,-0.22737 0.171566,-0.22738 0.171566,-0.63872 z m 0.380339,0.8971 q 0,0.59118 -0.262517,0.8785 -0.262516,0.28939 -0.804085,0.28939 -0.200504,0 -0.378271,-0.031 -0.177767,-0.0289 -0.345199,-0.0909 v -0.37 q 0.167432,0.0909 0.330729,0.13436 0.163298,0.0434 0.332796,0.0434 0.374138,0 0.560173,-0.19638 0.186035,-0.1943 0.186035,-0.58911 v -0.1881 q -0.117822,0.20464 -0.30179,0.30593 -0.183968,0.10128 -0.440283,0.10128 -0.425814,0 -0.686263,-0.32453 -0.26045,-0.32452 -0.26045,-0.85989 0,-0.53744 0.26045,-0.86197 0.260449,-0.32452 0.686263,-0.32452 0.256315,0 0.440283,0.10128 0.183968,0.10129 0.30179,0.30593 v -0.3514 h 0.380339 z"
         style="font-size:4.23333311px;stroke-width:0.26458332"
         id="path3887"
         inkscape:connector-curvature="0" />
      <path
         d="m 14.88606,204.23547 q 0,-0.41341 -0.171566,-0.64079 -0.169499,-0.22738 -0.47749,-0.22738 -0.305925,0 -0.47749,0.22738 -0.169499,0.22738 -0.169499,0.64079 0,0.41134 0.169499,0.63872 0.171565,0.22737 0.47749,0.22737 0.307991,0 0.47749,-0.22737 0.171566,-0.22738 0.171566,-0.63872 z m 0.380338,0.8971 q 0,0.59118 -0.262516,0.8785 -0.262516,0.28939 -0.804085,0.28939 -0.200505,0 -0.378272,-0.031 -0.177766,-0.0289 -0.345198,-0.0909 v -0.37 q 0.167432,0.0909 0.330729,0.13436 0.163298,0.0434 0.332796,0.0434 0.374138,0 0.560173,-0.19638 0.186035,-0.1943 0.186035,-0.58911 v -0.1881 q -0.117822,0.20464 -0.30179,0.30593 -0.183969,0.10128 -0.440284,0.10128 -0.425813,0 -0.686263,-0.32453 -0.260449,-0.32452 -0.260449,-0.85989 0,-0.53744 0.260449,-0.86197 0.26045,-0.32452 0.686263,-0.32452 0.256315,0 0.440284,0.10128 0.183968,0.10129 0.30179,0.30593 v -0.3514 h 0.380338 z"
         style="font-size:4.23333311px;stroke-width:0.26458332"
         id="path3889"
         inkscape:connector-curvature="0" />
      <path
         d="m 16.049814,203.10479 h 0.380338 v 2.3151 h -0.380338 z m 0,-0.90124 h 0.380338 v 0.48162 h -0.380338 z"
         style="font-size:4.23333311px;stroke-width:0.26458332"
         id="path3891"
         inkscape:connector-curvature="0" />
      <path
         d="m 18.170613,203.95435 q -0.297656,0 -0.469222,0.15916 -0.169498,0.15916 -0.169498,0.43822 0,0.27905 0.169498,0.43821 0.171566,0.15917 0.469222,0.15917 0.297657,0 0.469222,-0.15917 0.171566,-0.16123 0.171566,-0.43821 0,-0.27906 -0.171566,-0.43822 -0.169498,-0.15916 -0.469222,-0.15916 z m -0.417545,-0.17777 q -0.268718,-0.0661 -0.419613,-0.25011 -0.148828,-0.18397 -0.148828,-0.44855 0,-0.37001 0.262516,-0.58498 0.264584,-0.21498 0.72347,-0.21498 0.460954,0 0.72347,0.21498 0.262517,0.21497 0.262517,0.58498 0,0.26458 -0.150896,0.44855 -0.148828,0.18397 -0.415478,0.25011 0.30179,0.0703 0.469222,0.27492 0.169499,0.20464 0.169499,0.50023 0,0.44855 -0.274919,0.68833 -0.272852,0.23978 -0.783415,0.23978 -0.510563,0 -0.785481,-0.23978 -0.272852,-0.23978 -0.272852,-0.68833 0,-0.29559 0.169499,-0.50023 0.169498,-0.20464 0.471289,-0.27492 z m -0.152963,-0.65939 q 0,0.23978 0.148829,0.37414 0.150895,0.13436 0.421679,0.13436 0.268718,0 0.419613,-0.13436 0.152962,-0.13436 0.152962,-0.37414 0,-0.23978 -0.152962,-0.37414 -0.150895,-0.13436 -0.419613,-0.13436 -0.270784,0 -0.421679,0.13436 -0.148829,0.13436 -0.148829,0.37414 z"
         style="font-size:4.23333311px;stroke-width:0.26458332"
         id="path3893"
         inkscape:connector-curvature="0" />
      <path
         d="m 21.260863,203.46032 q -0.06408,-0.0372 -0.14056,-0.0537 -0.07441,-0.0186 -0.165364,-0.0186 -0.322461,0 -0.496094,0.21084 -0.171566,0.20878 -0.171566,0.60152 v 1.21956 h -0.382405 v -2.3151 h 0.382405 v 0.35967 q 0.11989,-0.21084 0.312126,-0.31213 0.192236,-0.10335 0.467155,-0.10335 0.03927,0 0.08682,0.006 0.04754,0.004 0.10542,0.0145 z"
         style="font-size:4.23333311px;stroke-width:0.26458332"
         id="path3895"
         inkscape:connector-curvature="0" />
    </g>
  </g>
</svg>
