<?xml version="1.0" encoding="UTF-8" standalone="no"?>
<!-- Created with Inkscape (http://www.inkscape.org/) -->

<svg
   xmlns:dc="http://purl.org/dc/elements/1.1/"
   xmlns:cc="http://creativecommons.org/ns#"
   xmlns:rdf="http://www.w3.org/1999/02/22-rdf-syntax-ns#"
   xmlns:svg="http://www.w3.org/2000/svg"
   xmlns="http://www.w3.org/2000/svg"
   xmlns:sodipodi="http://sodipodi.sourceforge.net/DTD/sodipodi-0.dtd"
   xmlns:inkscape="http://www.inkscape.org/namespaces/inkscape"
   width="90"
   height="380"
   viewBox="0 0 23.812501 100.54167"
   version="1.1"
   id="svg8"
   inkscape:version="0.92.3 (2405546, 2018-03-11)"
   sodipodi:docname="rpeggi8r.svg">
  <defs
     id="defs2" />
  <sodipodi:namedview
     id="base"
     pagecolor="#ffffff"
     bordercolor="#666666"
     borderopacity="1.0"
     inkscape:pageopacity="0.0"
     inkscape:pageshadow="2"
     inkscape:zoom="1.4"
     inkscape:cx="106.33776"
     inkscape:cy="170.63765"
     inkscape:document-units="mm"
     inkscape:current-layer="layer1"
     showgrid="false"
     units="px"
     inkscape:snap-bbox="true"
     inkscape:snap-page="true"
     inkscape:bbox-nodes="true"
     inkscape:snap-bbox-edge-midpoints="true"
     inkscape:window-width="923"
     inkscape:window-height="1045"
     inkscape:window-x="985"
     inkscape:window-y="0"
     inkscape:window-maximized="0" />
  <metadata
     id="metadata5">
    <rdf:RDF>
      <cc:Work
         rdf:about="">
        <dc:format>image/svg+xml</dc:format>
        <dc:type
           rdf:resource="http://purl.org/dc/dcmitype/StillImage" />
        <dc:title />
      </cc:Work>
    </rdf:RDF>
  </metadata>
  <g
     inkscape:label="Layer 1"
     inkscape:groupmode="layer"
     id="layer1"
     transform="translate(0,-196.45832)">
    <path
       style="opacity:1;vector-effect:none;fill:#f0f0f0;fill-opacity:1;fill-rule:evenodd;stroke:none;stroke-width:0.48607069;stroke-linecap:butt;stroke-linejoin:round;stroke-miterlimit:4;stroke-dasharray:none;stroke-dashoffset:0;stroke-opacity:1;paint-order:normal"
       d="M 0,196.45831 H 23.8125 V 296.99999 H 0 Z"
       id="rect817"
       inkscape:connector-curvature="0" />
    <g
       aria-label="Rpeggi8r"
       style="font-style:normal;font-weight:normal;font-size:4.23333311px;line-height:1.25;font-family:sans-serif;letter-spacing:0px;word-spacing:0px;fill:#000000;fill-opacity:1;stroke:none;stroke-width:0.26458332"
       id="text3879"
       transform="translate(0.0431547,0.69952667)">
      <path
         d="m 3.9203218,203.97295 q 0.1343587,0.0455 0.2604492,0.1943 0.1281575,0.14883 0.2563151,0.40928 l 0.4237467,0.84336 H 4.4122814 L 4.0174735,204.62821 Q 3.8645113,204.31815 3.7198172,204.21686 3.5771903,204.11558 3.3291434,204.11558 H 2.8743909 v 1.30431 H 2.4568453 v -3.08612 h 0.9425781 q 0.5291666,0 0.7896158,0.22118 0.2604492,0.22118 0.2604492,0.66766 0,0.29145 -0.1364257,0.48369 -0.1343588,0.19224 -0.3927409,0.26665 z m -1.0459309,-1.29604 v 1.09554 h 0.5250325 q 0.3017903,0 0.4547526,-0.1385 0.1550293,-0.14056 0.1550293,-0.41134 0,-0.27078 -0.1550293,-0.40721 -0.1529623,-0.13849 -0.4547526,-0.13849 z"
         style="font-size:4.23333311px;stroke-width:0.26458332"
         id="path3881"
         inkscape:connector-curvature="0" />
      <path
         d="m 5.7517343,205.07263 v 1.22783 H 5.3693288 v -3.19567 h 0.3824055 v 0.3514 q 0.1198894,-0.20671 0.3017904,-0.30593 0.1839681,-0.10128 0.4382161,-0.10128 0.4216797,0 0.6841959,0.33486 0.2645834,0.33486 0.2645834,0.88057 0,0.5457 -0.2645834,0.88056 -0.2625162,0.33487 -0.6841959,0.33487 -0.254248,0 -0.4382161,-0.0992 -0.181901,-0.10129 -0.3017904,-0.30799 z m 1.2939778,-0.80822 q 0,-0.41962 -0.1736328,-0.65733 -0.1715657,-0.23978 -0.4733561,-0.23978 -0.3017903,0 -0.4754231,0.23978 -0.1715658,0.23771 -0.1715658,0.65733 0,0.41961 0.1715658,0.65939 0.1736328,0.23771 0.4754231,0.23771 0.3017904,0 0.4733561,-0.23771 0.1736328,-0.23978 0.1736328,-0.65939 z"
         style="font-size:4.23333311px;stroke-width:0.26458332"
         id="path3883"
         inkscape:connector-curvature="0" />
      <path
         d="m 10.051214,204.16725 v 0.18604 H 8.3024831 q 0.024805,0.39274 0.2356445,0.59945 0.2129069,0.20464 0.5911784,0.20464 0.2191081,0 0.4237467,-0.0537 0.2067057,-0.0537 0.4092773,-0.16123 v 0.35967 q -0.2046386,0.0868 -0.4196126,0.13229 -0.2149739,0.0455 -0.436149,0.0455 -0.5539714,0 -0.8784993,-0.32246 -0.322461,-0.32247 -0.322461,-0.8723 0,-0.56844 0.3059245,-0.90124 0.3079915,-0.33486 0.8288899,-0.33486 0.467155,0 0.7379395,0.30179 0.272852,0.29972 0.272852,0.81648 z m -0.380339,-0.11162 q -0.00413,-0.31212 -0.1756999,-0.49816 -0.1694987,-0.18603 -0.4506184,-0.18603 -0.3183268,0 -0.5105632,0.17983 -0.1901692,0.17984 -0.219108,0.50643 z"
         style="font-size:4.23333311px;stroke-width:0.26458332"
         id="path3885"
         inkscape:connector-curvature="0" />
      <path
         d="m 12.198885,204.23547 q 0,-0.41341 -0.171566,-0.64079 -0.169498,-0.22738 -0.47749,-0.22738 -0.305924,0 -0.47749,0.22738 -0.169499,0.22738 -0.169499,0.64079 0,0.41134 0.169499,0.63872 0.171566,0.22737 0.47749,0.22737 0.307992,0 0.47749,-0.22737 0.171566,-0.22738 0.171566,-0.63872 z m 0.380339,0.8971 q 0,0.59118 -0.262517,0.8785 -0.262516,0.28939 -0.804085,0.28939 -0.200504,0 -0.378271,-0.031 -0.177767,-0.0289 -0.345199,-0.0909 v -0.37 q 0.167432,0.0909 0.330729,0.13436 0.163298,0.0434 0.332796,0.0434 0.374138,0 0.560173,-0.19638 0.186035,-0.1943 0.186035,-0.58911 v -0.1881 q -0.117822,0.20464 -0.30179,0.30593 -0.183968,0.10128 -0.440283,0.10128 -0.425814,0 -0.686263,-0.32453 -0.26045,-0.32452 -0.26045,-0.85989 0,-0.53744 0.26045,-0.86197 0.260449,-0.32452 0.686263,-0.32452 0.256315,0 0.440283,0.10128 0.183968,0.10129 0.30179,0.30593 v -0.3514 h 0.380339 z"
         style="font-size:4.23333311px;stroke-width:0.26458332"
         id="path3887"
         inkscape:connector-curvature="0" />
      <path
         d="m 14.88606,204.23547 q 0,-0.41341 -0.171566,-0.64079 -0.169499,-0.22738 -0.47749,-0.22738 -0.305925,0 -0.47749,0.22738 -0.169499,0.22738 -0.169499,0.64079 0,0.41134 0.169499,0.63872 0.171565,0.22737 0.47749,0.22737 0.307991,0 0.47749,-0.22737 0.171566,-0.22738 0.171566,-0.63872 z m 0.380338,0.8971 q 0,0.59118 -0.262516,0.8785 -0.262516,0.28939 -0.804085,0.28939 -0.200505,0 -0.378272,-0.031 -0.177766,-0.0289 -0.345198,-0.0909 v -0.37 q 0.167432,0.0909 0.330729,0.13436 0.163298,0.0434 0.332796,0.0434 0.374138,0 0.560173,-0.19638 0.186035,-0.1943 0.186035,-0.58911 v -0.1881 q -0.117822,0.20464 -0.30179,0.30593 -0.183969,0.10128 -0.440284,0.10128 -0.425813,0 -0.686263,-0.32453 -0.260449,-0.32452 -0.260449,-0.85989 0,-0.53744 0.260449,-0.86197 0.26045,-0.32452 0.686263,-0.32452 0.256315,0 0.440284,0.10128 0.183968,0.10129 0.30179,0.30593 v -0.3514 h 0.380338 z"
         style="font-size:4.23333311px;stroke-width:0.26458332"
         id="path3889"
         inkscape:connector-curvature="0" />
      <path
         d="m 16.049814,203.10479 h 0.380338 v 2.3151 h -0.380338 z m 0,-0.90124 h 0.380338 v 0.48162 h -0.380338 z"
         style="font-size:4.23333311px;stroke-width:0.26458332"
         id="path3891"
         inkscape:connector-curvature="0" />
      <path
         d="m 18.170613,203.95435 q -0.297656,0 -0.469222,0.15916 -0.169498,0.15916 -0.169498,0.43822 0,0.27905 0.169498,0.43821 0.171566,0.15917 0.469222,0.15917 0.297657,0 0.469222,-0.15917 0.171566,-0.16123 0.171566,-0.43821 0,-0.27906 -0.171566,-0.43822 -0.169498,-0.15916 -0.469222,-0.15916 z m -0.417545,-0.17777 q -0.268718,-0.0661 -0.419613,-0.25011 -0.148828,-0.18397 -0.148828,-0.44855 0,-0.37001 0.262516,-0.58498 0.264584,-0.21498 0.72347,-0.21498 0.460954,0 0.72347,0.21498 0.262517,0.21497 0.262517,0.58498 0,0.26458 -0.150896,0.44855 -0.148828,0.18397 -0.415478,0.25011 0.30179,0.0703 0.469222,0.27492 0.169499,0.20464 0.169499,0.50023 0,0.44855 -0.274919,0.68833 -0.272852,0.23978 -0.783415,0.23978 -0.510563,0 -0.785481,-0.23978 -0.272852,-0.23978 -0.272852,-0.68833 0,-0.29559 0.169499,-0.50023 0.169498,-0.20464 0.471289,-0.27492 z m -0.152963,-0.65939 q 0,0.23978 0.148829,0.37414 0.150895,0.13436 0.421679,0.13436 0.268718,0 0.419613,-0.13436 0.152962,-0.13436 0.152962,-0.37414 0,-0.23978 -0.152962,-0.37414 -0.150895,-0.13436 -0.419613,-0.13436 -0.270784,0 -0.421679,0.13436 -0.148829,0.13436 -0.148829,0.37414 z"
         style="font-size:4.23333311px;stroke-width:0.26458332"
         id="path3893"
         inkscape:connector-curvature="0" />
      <path
         d="m 21.260863,203.46032 q -0.06408,-0.0372 -0.14056,-0.0537 -0.07441,-0.0186 -0.165364,-0.0186 -0.322461,0 -0.496094,0.21084 -0.171566,0.20878 -0.171566,0.60152 v 1.21956 h -0.382405 v -2.3151 h 0.382405 v 0.35967 q 0.11989,-0.21084 0.312126,-0.31213 0.192236,-0.10335 0.467155,-0.10335 0.03927,0 0.08682,0.006 0.04754,0.004 0.10542,0.0145 z"
         style="font-size:4.23333311px;stroke-width:0.26458332"
         id="path3895"
         inkscape:connector-curvature="0" />
    </g>
    <g
       aria-label="Freq"
       style="font-style:normal;font-weight:normal;font-size:10.58333302px;line-height:1.25;font-family:sans-serif;letter-spacing:0px;word-spacing:0px;fill:#000000;fill-opacity:1;stroke:none;stroke-width:0.26458332"
       id="text3900"
       transform="translate(-3.1750001,0.52916667)">
      <path
         d="m 9.348414,224.639 h 1.182357 v 0.23427 H 9.6267777 v 0.60633 h 0.8157983 v 0.23427 H 9.6267777 v 0.98254 H 9.348414 Z"
         style="font-size:2.82222223px;stroke-width:0.26458332"
         id="path3910"
         inkscape:connector-curvature="0" />
      <path
         d="m 11.653872,225.39003 q -0.04272,-0.0248 -0.09371,-0.0358 -0.04961,-0.0124 -0.110243,-0.0124 -0.214974,0 -0.330729,0.14056 -0.114377,0.13918 -0.114377,0.40101 v 0.81304 h -0.254937 v -1.5434 h 0.254937 v 0.23978 q 0.07993,-0.14056 0.208084,-0.20809 0.128157,-0.0689 0.311436,-0.0689 0.02618,0 0.05788,0.004 0.03169,0.003 0.07028,0.01 z"
         style="font-size:2.82222223px;stroke-width:0.26458332"
         id="path3912"
         inkscape:connector-curvature="0" />
      <path
         d="m 13.182116,225.86132 v 0.12402 h -1.16582 q 0.01654,0.26183 0.157096,0.39963 0.141938,0.13643 0.394119,0.13643 0.146072,0 0.282498,-0.0358 0.137804,-0.0358 0.272852,-0.10749 v 0.23978 q -0.136426,0.0579 -0.279742,0.0882 -0.143316,0.0303 -0.290766,0.0303 -0.369314,0 -0.585666,-0.21497 -0.214974,-0.21497 -0.214974,-0.58153 0,-0.37896 0.203949,-0.60083 0.205328,-0.22324 0.552594,-0.22324 0.311436,0 0.491959,0.20119 0.181901,0.19982 0.181901,0.54433 z m -0.253559,-0.0744 q -0.0028,-0.20809 -0.117133,-0.33211 -0.112999,-0.12402 -0.300412,-0.12402 -0.212218,0 -0.340376,0.11988 -0.126779,0.11989 -0.146072,0.33762 z"
         style="font-size:2.82222223px;stroke-width:0.26458332"
         id="path3914"
         inkscape:connector-curvature="0" />
      <path
         d="m 13.749868,225.92609 q 0,0.27974 0.114377,0.43959 0.115756,0.15848 0.316949,0.15848 0.201194,0 0.316949,-0.15848 0.115755,-0.15985 0.115755,-0.43959 0,-0.27974 -0.115755,-0.43822 -0.115755,-0.15985 -0.316949,-0.15985 -0.201193,0 -0.316949,0.15985 -0.114377,0.15848 -0.114377,0.43822 z m 0.86403,0.53881 q -0.07993,0.1378 -0.202571,0.20533 -0.121268,0.0661 -0.292145,0.0661 -0.279741,0 -0.45613,-0.22324 -0.175011,-0.22324 -0.175011,-0.58704 0,-0.3638 0.175011,-0.58705 0.176389,-0.22324 0.45613,-0.22324 0.170877,0 0.292145,0.0675 0.122645,0.0661 0.202571,0.20394 v -0.23426 h 0.253559 v 2.13045 h -0.253559 z"
         style="font-size:2.82222223px;stroke-width:0.26458332"
         id="path3916"
         inkscape:connector-curvature="0" />
    </g>
    <g
       aria-label="Tones"
       style="font-style:normal;font-weight:normal;font-size:10.58333302px;line-height:1.25;font-family:sans-serif;letter-spacing:0px;word-spacing:0px;fill:#000000;fill-opacity:1;stroke:none;stroke-width:0.26458332"
       id="text3904"
       transform="translate(0,6.879167)">
      <path
         d="m 7.9292322,255.82204 h 1.7404623 v 0.23427 H 8.9393342 v 1.82315 H 8.6595925 v -1.82315 H 7.9292322 Z"
         style="font-size:2.82222223px;stroke-width:0.26458332"
         id="path3919"
         inkscape:connector-curvature="0" />
      <path
         d="m 10.047277,256.51382 q -0.2039497,0 -0.322461,0.15985 -0.1185113,0.15848 -0.1185113,0.43546 0,0.27699 0.1171332,0.43684 0.1185113,0.15847 0.3238391,0.15847 0.202572,0 0.321083,-0.15985 0.118511,-0.15985 0.118511,-0.43546 0,-0.27423 -0.118511,-0.43408 -0.118511,-0.16123 -0.321083,-0.16123 z m 0,-0.21497 q 0.330729,0 0.51952,0.21497 0.188792,0.21497 0.188792,0.59531 0,0.37896 -0.188792,0.59531 -0.188791,0.21498 -0.51952,0.21498 -0.3321073,0 -0.5208985,-0.21498 -0.1874132,-0.21635 -0.1874132,-0.59531 0,-0.38034 0.1874132,-0.59531 0.1887912,-0.21497 0.5208985,-0.21497 z"
         style="font-size:2.82222223px;stroke-width:0.26458332"
         id="path3921"
         inkscape:connector-curvature="0" />
      <path
         d="m 12.457466,256.9479 v 0.93156 h -0.253559 v -0.92329 q 0,-0.21911 -0.08544,-0.32797 -0.08544,-0.10887 -0.256315,-0.10887 -0.205328,0 -0.323839,0.13092 -0.118511,0.13091 -0.118511,0.35691 v 0.8723 h -0.254937 v -1.54341 h 0.254937 v 0.23978 q 0.09095,-0.13918 0.213596,-0.20808 0.124023,-0.0689 0.285254,-0.0689 0.265961,0 0.402387,0.16536 0.136426,0.16399 0.136427,0.48369 z"
         style="font-size:2.82222223px;stroke-width:0.26458332"
         id="path3923"
         inkscape:connector-curvature="0" />
      <path
         d="m 14.286122,257.04436 v 0.12403 h -1.16582 q 0.01654,0.26183 0.157096,0.39963 0.141938,0.13642 0.394119,0.13642 0.146072,0 0.282498,-0.0358 0.137804,-0.0358 0.272852,-0.10749 v 0.23978 q -0.136426,0.0579 -0.279742,0.0882 -0.143316,0.0303 -0.290766,0.0303 -0.369314,0 -0.585666,-0.21498 -0.214974,-0.21497 -0.214974,-0.58153 0,-0.37896 0.203949,-0.60082 0.205328,-0.22324 0.552594,-0.22324 0.311436,0 0.491959,0.20119 0.181901,0.19981 0.181901,0.54432 z m -0.253559,-0.0744 q -0.0028,-0.20808 -0.117133,-0.33211 -0.112999,-0.12402 -0.300412,-0.12402 -0.212218,0 -0.340376,0.11989 -0.126779,0.11989 -0.146072,0.33762 z"
         style="font-size:2.82222223px;stroke-width:0.26458332"
         id="path3925"
         inkscape:connector-curvature="0" />
      <path
         d="m 15.686209,256.38153 v 0.23978 q -0.107487,-0.0551 -0.223242,-0.0827 -0.115755,-0.0276 -0.239779,-0.0276 -0.188791,0 -0.283876,0.0579 -0.09371,0.0579 -0.09371,0.17363 0,0.0882 0.06752,0.13919 0.06752,0.0496 0.271473,0.0951 l 0.08682,0.0193 q 0.270095,0.0579 0.383094,0.16399 0.114377,0.10473 0.114377,0.29352 0,0.21498 -0.170876,0.34038 -0.169499,0.1254 -0.467155,0.1254 -0.124024,0 -0.259072,-0.0248 -0.133669,-0.0234 -0.282497,-0.0716 v -0.26183 q 0.14056,0.073 0.276985,0.11024 0.136426,0.0358 0.270096,0.0358 0.179145,0 0.275607,-0.0606 0.09646,-0.062 0.09646,-0.17364 0,-0.10335 -0.07028,-0.15847 -0.0689,-0.0551 -0.304546,-0.10611 l -0.0882,-0.0207 q -0.235644,-0.0496 -0.340375,-0.15158 -0.104731,-0.10336 -0.104731,-0.2825 0,-0.21773 0.15434,-0.33624 0.154341,-0.11851 0.438216,-0.11851 0.14056,0 0.264584,0.0207 0.124023,0.0207 0.228754,0.062 z"
         style="font-size:2.82222223px;stroke-width:0.26458332"
         id="path3927"
         inkscape:connector-curvature="0" />
    </g>
    <g
       aria-label="Output"
       style="font-style:normal;font-weight:normal;font-size:10.58333302px;line-height:1.25;font-family:sans-serif;letter-spacing:0px;word-spacing:0px;fill:#000000;fill-opacity:1;stroke:none;stroke-width:0.26458332"
       id="text3908"
       transform="translate(0.52916667,-3.7041668)">
      <path
         d="m 7.9156485,281.14624 q -0.3031684,0 -0.4823133,0.226 -0.177767,0.226 -0.177767,0.61598 0,0.38861 0.177767,0.61461 0.1791449,0.226 0.4823133,0.226 0.3031684,0 0.4795573,-0.226 0.1777669,-0.226 0.1777669,-0.61461 0,-0.38998 -0.1777669,-0.61598 -0.1763889,-0.226 -0.4795573,-0.226 z m 0,-0.226 q 0.432704,0 0.6917752,0.29077 0.2590712,0.28939 0.2590712,0.77721 0,0.48645 -0.2590712,0.77722 -0.2590712,0.28939 -0.6917752,0.28939 -0.434082,0 -0.6945312,-0.28939 -0.2590712,-0.28939 -0.2590712,-0.77722 0,-0.48782 0.2590712,-0.77721 0.2604492,-0.29077 0.6945312,-0.29077 z"
         style="font-size:2.82222223px;stroke-width:0.26458332"
         id="path3930"
         inkscape:connector-curvature="0" />
      <path
         d="m 9.264748,282.40577 v -0.93431 h 0.253559 v 0.92466 q 0,0.21911 0.085438,0.32935 0.085438,0.10887 0.2563151,0.10887 0.2053279,0 0.3238389,-0.13091 0.11989,-0.13092 0.11989,-0.35692 v -0.87505 h 0.253559 v 1.5434 h -0.253559 v -0.23702 q -0.09233,0.14056 -0.214974,0.20946 -0.1212679,0.0675 -0.2824984,0.0675 -0.2659614,0 -0.4037652,-0.16537 Q 9.264748,282.7241 9.264748,282.40577 Z m 0.6380317,-0.97152 z"
         style="font-size:2.82222223px;stroke-width:0.26458332"
         id="path3932"
         inkscape:connector-curvature="0" />
      <path
         d="m 11.333183,281.03324 v 0.43822 h 0.522277 v 0.19706 h -0.522277 v 0.83785 q 0,0.18879 0.05099,0.24253 0.05236,0.0537 0.21084,0.0537 h 0.260449 v 0.21222 h -0.260449 q -0.293522,0 -0.405144,-0.10886 -0.111621,-0.11025 -0.111621,-0.39963 v -0.83785 h -0.186035 v -0.19706 h 0.186035 v -0.43822 z"
         style="font-size:2.82222223px;stroke-width:0.26458332"
         id="path3934"
         inkscape:connector-curvature="0" />
      <path
         d="m 12.435614,282.78335 v 0.81856 h -0.254937 v -2.13045 h 0.254937 v 0.23427 q 0.07993,-0.13781 0.201193,-0.20395 0.122646,-0.0675 0.292145,-0.0675 0.281119,0 0.45613,0.22324 0.176389,0.22325 0.176389,0.58705 0,0.3638 -0.176389,0.58704 -0.175011,0.22325 -0.45613,0.22325 -0.169499,0 -0.292145,-0.0661 -0.121267,-0.0675 -0.201193,-0.20533 z m 0.862652,-0.53881 q 0,-0.27974 -0.115755,-0.43822 -0.114378,-0.15985 -0.315571,-0.15985 -0.201194,0 -0.316949,0.15985 -0.114377,0.15848 -0.114377,0.43822 0,0.27974 0.114377,0.43959 0.115755,0.15848 0.316949,0.15848 0.201193,0 0.315571,-0.15848 0.115755,-0.15985 0.115755,-0.43959 z"
         style="font-size:2.82222223px;stroke-width:0.26458332"
         id="path3936"
         inkscape:connector-curvature="0" />
      <path
         d="m 13.95559,282.40577 v -0.93431 h 0.253559 v 0.92466 q 0,0.21911 0.08544,0.32935 0.08544,0.10887 0.256315,0.10887 0.205328,0 0.323839,-0.13091 0.11989,-0.13092 0.11989,-0.35692 v -0.87505 h 0.253559 v 1.5434 h -0.253559 v -0.23702 q -0.09233,0.14056 -0.214974,0.20946 -0.121268,0.0675 -0.282498,0.0675 -0.265961,0 -0.403765,-0.16537 -0.137804,-0.16536 -0.137804,-0.48369 z m 0.638032,-0.97152 z"
         style="font-size:2.82222223px;stroke-width:0.26458332"
         id="path3938"
         inkscape:connector-curvature="0" />
      <path
         d="m 16.024026,281.03324 v 0.43822 h 0.522276 v 0.19706 h -0.522276 v 0.83785 q 0,0.18879 0.05099,0.24253 0.05237,0.0537 0.21084,0.0537 h 0.260449 v 0.21222 h -0.260449 q -0.293522,0 -0.405143,-0.10886 -0.111621,-0.11025 -0.111621,-0.39963 v -0.83785 h -0.186036 v -0.19706 h 0.186036 v -0.43822 z"
         style="font-size:2.82222223px;stroke-width:0.26458332"
         id="path3940"
         inkscape:connector-curvature="0" />
    </g>
    <g
       aria-label="Mode"
       style="font-style:normal;font-weight:normal;font-size:10.58333302px;line-height:1.25;font-family:sans-serif;letter-spacing:0px;word-spacing:0px;fill:#000000;fill-opacity:1;stroke:none;stroke-width:0.26458332"
       id="text3945"
       transform="translate(1.0583333,-10.583334)">
      <path
         d="m 13.279956,224.63964 h 0.41479 l 0.525032,1.40009 0.527789,-1.40009 h 0.41479 v 2.05741 h -0.271474 v -1.80661 l -0.530545,1.41112 h -0.279741 l -0.530545,-1.41112 v 1.80661 h -0.270096 z"
         style="font-size:2.82222223px;stroke-width:0.26458332"
         id="path3951"
         inkscape:connector-curvature="0" />
      <path
         d="m 16.303372,225.33142 q -0.203949,0 -0.322461,0.15985 -0.118511,0.15847 -0.118511,0.43546 0,0.27698 0.117133,0.43684 0.118512,0.15847 0.323839,0.15847 0.202572,0 0.321083,-0.15985 0.118511,-0.15985 0.118511,-0.43546 0,-0.27423 -0.118511,-0.43408 -0.118511,-0.16123 -0.321083,-0.16123 z m 0,-0.21498 q 0.330729,0 0.519521,0.21498 0.188791,0.21497 0.188791,0.59531 0,0.37896 -0.188791,0.59531 -0.188792,0.21498 -0.519521,0.21498 -0.332107,0 -0.520898,-0.21498 -0.187413,-0.21635 -0.187413,-0.59531 0,-0.38034 0.187413,-0.59531 0.188791,-0.21498 0.520898,-0.21498 z"
         style="font-size:2.82222223px;stroke-width:0.26458332"
         id="path3953"
         inkscape:connector-curvature="0" />
      <path
         d="m 18.446222,225.38792 v -0.8351 h 0.253559 v 2.14423 h -0.253559 v -0.23151 q -0.07993,0.13781 -0.202572,0.20533 -0.121267,0.0661 -0.292144,0.0661 -0.279742,0 -0.456131,-0.22325 -0.175011,-0.22324 -0.175011,-0.58704 0,-0.3638 0.175011,-0.58705 0.176389,-0.22324 0.456131,-0.22324 0.170877,0 0.292144,0.0675 0.122645,0.0661 0.202572,0.20395 z m -0.86403,0.53881 q 0,0.27974 0.114377,0.43959 0.115755,0.15848 0.316949,0.15848 0.201193,0 0.316948,-0.15848 0.115756,-0.15985 0.115756,-0.43959 0,-0.27974 -0.115756,-0.43822 -0.115755,-0.15985 -0.316948,-0.15985 -0.201194,0 -0.316949,0.15985 -0.114377,0.15848 -0.114377,0.43822 z"
         style="font-size:2.82222223px;stroke-width:0.26458332"
         id="path3955"
         inkscape:connector-curvature="0" />
      <path
         d="m 20.542218,225.86196 v 0.12402 h -1.165821 q 0.01654,0.26183 0.157097,0.39964 0.141938,0.13642 0.394119,0.13642 0.146072,0 0.282497,-0.0358 0.137804,-0.0358 0.272852,-0.10748 v 0.23977 q -0.136426,0.0579 -0.279742,0.0882 -0.143316,0.0303 -0.290766,0.0303 -0.369314,0 -0.585666,-0.21498 -0.214974,-0.21497 -0.214974,-0.58153 0,-0.37896 0.20395,-0.60083 0.205327,-0.22324 0.552593,-0.22324 0.311437,0 0.49196,0.2012 0.181901,0.19981 0.181901,0.54432 z m -0.253559,-0.0744 q -0.0028,-0.20809 -0.117134,-0.33211 -0.112999,-0.12402 -0.300412,-0.12402 -0.212218,0 -0.340375,0.11989 -0.12678,0.11988 -0.146072,0.33761 z"
         style="font-size:2.82222223px;stroke-width:0.26458332"
         id="path3957"
         inkscape:connector-curvature="0" />
    </g>
  </g>
</svg>
